<svg xmlns="http://www.w3.org/2000/svg" viewBox="0 0 512.171 341.333" fill="#fff"><path d="M509.312 160c-3.84-6.4-93.44-160-253.227-160S6.698 153.6 2.858 160a21.332 21.332 0 0 0 0 21.333c3.84 6.4 93.44 160 253.227 160s249.387-153.6 253.227-160a21.332 21.332 0 0 0 0-21.333zM256.086 298.667c-112.64 0-187.307-95.573-209.28-128 21.333-32.427 96.427-128 209.28-128s187.307 95.573 209.28 128c-21.974 32.426-96.214 128-209.28 128z"/><path d="M256.086 64a106.667 106.667 0 1 0 106.667 106.667A106.667 106.667 0 0 0 256.086 64zm0 170.667a64 64 0 1 1 64-64 64 64 0 0 1-64 64z"/><circle cx="277.419" cy="149.333" r="21.333"/></svg>