<svg xmlns="http://www.w3.org/2000/svg" viewBox="0 0 9.3 12.9"><path d="M4.3 7a7.95 7.95 0 0 1 1.3-1.4 9.322 9.322 0 0 0 1-1 1.613 1.613 0 0 0 .3-.9 1.425 1.425 0 0 0-.6-1.2A2.203 2.203 0 0 0 4.7 2a3.301 3.301 0 0 0-2.9 1.4L0 2.2A4.47 4.47 0 0 1 2 .6 6.235 6.235 0 0 1 4.9 0a5.275 5.275 0 0 1 3.2.9 2.851 2.851 0 0 1 1.2 2.4 5.067 5.067 0 0 1-.2 1.3 2.178 2.178 0 0 1-.7.9 3.819 3.819 0 0 1-.9.9 4.7 4.7 0 0 0-1 1.1 2.016 2.016 0 0 0-.3 1.1H3.9A2.726 2.726 0 0 1 4.3 7zM4 12.5a1.284 1.284 0 0 1-.4-1 1.284 1.284 0 0 1 .4-1 1.284 1.284 0 0 1 1-.4 1.367 1.367 0 0 1 1.4 1.4A1.367 1.367 0 0 1 5 12.9a1.284 1.284 0 0 1-1-.4z" fill="#516290"/></svg>