<svg xmlns="http://www.w3.org/2000/svg" viewBox="0 0 459.06 393.175"><defs><clipPath id="a"><path d="M286.39 232.414c-17.365.97-30.383 20.722-30.383 20.722s15.137 18.18 32.503 17.209 30.383-20.722 30.383-20.722-15.137-18.179-32.502-17.209z" fill="none"/></clipPath><clipPath id="b"><path d="M143.327 251.716c19.674 16.98 54.167 9.258 54.167 9.258s2.594-35.25-17.08-52.23-54.166-9.258-54.166-9.258-2.594 35.25 17.08 52.23z" fill="none"/></clipPath><clipPath id="c"><path d="M315.295 234.31c-17.83 16.15-49.245 10.515-49.245 10.515s-2.508-31.818 15.322-47.967 49.245-10.516 49.245-10.516 2.508 31.818-15.322 47.968z" fill="none"/></clipPath></defs><g style="isolation:isolate"><path d="M366.722 237.82l9.228-11.392a5.357 5.357 0 0 1 7.535-.791l11.393 9.228a5.357 5.357 0 0 1 .79 7.535l-9.227 11.393a5.357 5.357 0 0 1-7.535.79l-11.393-9.227a5.357 5.357 0 0 1-.791-7.535z" fill="#8fd8d3"/><path d="M378.704 229.62a19.53 19.53 0 0 1 4.936 3.974 3.914 3.914 0 0 1 .353 4.662 4.224 4.224 0 0 1-4.553 2.03 7.03 7.03 0 0 1-3.058-1.617c-.216-.183-.44-.357-.706-.573a3913.86 3913.86 0 0 0-2.963 3.659l-2.317-1.877 8.308-10.257zm-1.498 6.624a4.267 4.267 0 0 0 2.005 1.345 2.02 2.02 0 0 0 2.254-.98 1.743 1.743 0 0 0-.26-2.222 16.162 16.162 0 0 0-1.497-1.232c-.845 1.043-1.656 2.043-2.502 3.09zm11.979 6.866l-1.63 1.208c-.397-.515-.756-1.023-1.162-1.49a1.533 1.533 0 0 0-.696-.48.952.952 0 0 0-.773.112.875.875 0 0 0-.164.753 7.838 7.838 0 0 0 .567 1.15 9.63 9.63 0 0 1 .652 1.408 2.812 2.812 0 0 1-3.059 3.629 5.29 5.29 0 0 1-3.165-1.694c-.583-.59-1.064-1.283-1.635-1.985l1.74-1.328c.62.743 1.197 1.46 1.806 2.148a1.038 1.038 0 0 0 .6.33.952.952 0 0 0 .718-.164.98.98 0 0 0 .19-.761 4.11 4.11 0 0 0-.44-.912 12.495 12.495 0 0 1-.763-1.593 2.708 2.708 0 0 1 2.8-3.615 5.76 5.76 0 0 1 4.414 3.285z" fill="#fff"/><path d="M401.192 163.424H299.3c-15.365 0-15.557-19.06-1.92-22.893a26.72 26.72 0 0 1 23.989 5.077s3.7-46.843 38.775-41.343c27.65 4.336 26.044 34.448 26.044 34.448s5.692-12.393 20.608-7.704c15.564 4.893 13.876 32.415-5.604 32.415z" fill="#ebf5f7"/><path d="M286.39 232.414c-17.365.97-30.383 20.722-30.383 20.722s15.137 18.18 32.503 17.209 30.383-20.722 30.383-20.722-15.137-18.179-32.502-17.209z" fill="#023d5f"/><g clip-path="url(#a)" fill="none" stroke="#17a59e" stroke-miterlimit="10"><path d="M254.351 253.167l66.191-3.698m-35.502 21.765l-16.096-18.883m39.119 17.596l-16.096-18.882m-10.9.609l17.434-18.263m-2.015 17.464l11.946-12.173"/></g><ellipse cx="219.636" cy="308.383" rx="131.646" ry="16.933" fill="#dae4e5"/><ellipse cx="351.157" cy="317.98" rx="96.605" ry="21.062" fill="#dae4e5"/><path d="M143.327 251.716c19.674 16.98 54.167 9.258 54.167 9.258s2.594-35.25-17.08-52.23-54.166-9.258-54.166-9.258-2.594 35.25 17.08 52.23z" fill="#023d5f"/><g clip-path="url(#b)" fill="none" stroke="#17a59e" stroke-miterlimit="10"><path d="M199.305 262.66l-74.989-64.72m60.75 13.449l-2.294 37.002m-23.788-59.513l-2.295 37.003m12.349 10.657l-37.694 1.538m20.29-16.681l-25.474.687"/></g><path d="M99.651 237.191h-89.27c-13.46 0-13.629-15.306-1.68-18.385a24.904 24.904 0 0 1 21.015 4.077s3.242-37.621 33.972-33.204c24.225 3.482 22.818 27.666 22.818 27.666s4.987-9.953 18.055-6.187c13.635 3.93 12.157 26.033-4.91 26.033zM119.79 80.017h71.856c10.835 0 10.97-12.32 1.353-14.799a20.046 20.046 0 0 0-16.916 3.282s-2.61-30.282-27.344-26.727c-19.5 2.803-18.367 22.27-18.367 22.27s-4.014-8.011-14.533-4.98c-10.975 3.163-9.786 20.954 3.952 20.954z" fill="#ebf5f7"/><path d="M132.631 302.339c0 3.337-19.238 6.045-42.972 6.045-23.73 0-42.969-2.708-42.969-6.045 0-3.339 19.239-6.046 42.97-6.046 23.733 0 42.971 2.707 42.971 6.046z" fill="#dae4e5"/><path fill="none" stroke="#023d5f" stroke-miterlimit="10" stroke-width="2" d="M62.956 302.782L76.489 161.19m40.419 141.592L103.375 161.19M75.41 172.479h29.044m-30.668 16.994h32.292m-33.916 16.994h35.541M70.537 223.46h38.79m-40.414 16.994h41.979m-43.603 16.994h45.237m-46.861 16.994h48.521M64.04 291.436h51.241"/><path d="M105.133 162.041H74.731a1.757 1.757 0 0 1-1.757-1.757 1.757 1.757 0 0 1 1.757-1.757h30.402a1.757 1.757 0 0 1 1.757 1.757 1.757 1.757 0 0 1-1.757 1.757z" fill="#2dc1bd"/><path d="M315.295 234.31c-17.83 16.15-49.245 10.515-49.245 10.515s-2.508-31.818 15.322-47.967 49.245-10.516 49.245-10.516 2.508 31.818-15.322 47.968z" fill="#17a59e"/><g clip-path="url(#c)" fill="none" stroke="#2dc1bd" stroke-miterlimit="10"><path d="M264.409 246.423l67.96-61.556m-55.218 14.569l2.241 33.416m21.397-54.826l2.241 33.416m-11.191 10.136l34.303-.091m-18.531-14.307l23.181-.38"/></g><path fill="none" stroke="#63bace" stroke-linecap="round" stroke-linejoin="round" d="M208.211 301.053v1.5"/><path d="M208.21 305.046v4.682a15.584 15.584 0 0 1-15.583 15.584H166.01a9.307 9.307 0 0 1-9.308-9.307v-10.624" fill="none" stroke="#63bace" stroke-linecap="round" stroke-linejoin="round" stroke-dasharray="2.99118 2.49265"/><path fill="none" stroke="#63bace" stroke-linecap="round" stroke-linejoin="round" d="M156.703 304.135v-1.5m-41.517 1.725v1.5"/><path d="M115.186 308.351v13.391a18.16 18.16 0 0 0 18.16 18.161h57.55a26.974 26.974 0 0 0 26.974-26.974v-21.38" fill="none" stroke="#63bace" stroke-linecap="round" stroke-linejoin="round" stroke-dasharray="2.9899 2.49158"/><path fill="none" stroke="#63bace" stroke-linecap="round" stroke-linejoin="round" d="M217.87 290.303v-1.5m-88.591 15.557v1.5"/><path d="M129.279 308.282v13.46a18.16 18.16 0 0 0 18.16 18.161h20.747" fill="none" stroke="#63bace" stroke-linecap="round" stroke-linejoin="round" stroke-dasharray="2.90625 2.42187"/><path fill="none" stroke="#63bace" stroke-linecap="round" stroke-linejoin="round" d="M169.397 339.903h1.5m-28.031-35.543v1.5"/><path d="M142.866 308.348v13.394a18.16 18.16 0 0 0 18.161 18.161h22.518" fill="none" stroke="#63bace" stroke-linecap="round" stroke-linejoin="round" stroke-dasharray="2.98527 2.48773"/><path fill="none" stroke="#63bace" stroke-linecap="round" stroke-linejoin="round" d="M184.789 339.903h1.5"/><path fill="#fdd247" d="M120.149 249.514v61.666l-9.921.016-.21-61.667 10.131-.015z"/><path fill="#fcded6" d="M114.963 236.116l1.011 1.435 4.175 11.963-10.123.015 3.969-12.024.968-1.389z"/><path fill="#fdd247" d="M114.963 236.116l1.011 1.435-.533.333-.476-.38-.513.516-.457-.515.968-1.389z"/><path fill="#fcded6" d="M110.026 249.529l1.451 1.09 1.028-1.094-2.479.004zm2.479-.004l1.451 1.09 1.027-1.094-2.478.004zm2.478-.004l1.451 1.09 1.028-1.094-2.479.004zm2.479-.004l1.451 1.091 1.236-1.094-2.687.003z"/><path fill="#71606e" opacity=".2" style="mix-blend-mode:multiply" d="M114.963 236.111l1.011 1.435 4.175 11.968.002 61.662-3.216.005-.211-61.667-3.199-10.585.47-1.429.968-1.389z"/><path fill="#167f7f" d="M110.226 310.517h9.924v1.823h-9.924z"/><path fill="#fc9549" d="M134.056 249.514v61.666l-9.921.016-.21-61.667 10.131-.015z"/><path fill="#fcded6" d="M128.87 236.116l1.01 1.435 4.176 11.963-10.123.015 3.968-12.024.969-1.389z"/><path fill="#fc9549" d="M128.87 236.116l1.01 1.435-.532.333-.476-.38-.513.516-.458-.515.969-1.389z"/><path fill="#fcded6" d="M123.933 249.529l1.451 1.09 1.027-1.094-2.478.004z"/><path fill="#fcded6" d="M126.411 249.525l1.451 1.09 1.028-1.094-2.479.004zm2.479-.004l1.451 1.09 1.027-1.094-2.478.004zm2.478-.004l1.451 1.091 1.237-1.094-2.688.003z"/><path fill="#71606e" opacity=".2" style="mix-blend-mode:multiply" d="M128.87 236.111l1.01 1.435 4.176 11.968.001 61.662-3.215.005-.211-61.667-3.2-10.585.47-1.429.969-1.389z"/><path fill="#167f7f" d="M124.133 310.517h9.924v1.823h-9.924z"/><path fill="#fc5e49" d="M147.963 249.514v61.666l-9.921.016-.211-61.667 10.132-.015z"/><path fill="#fcded6" d="M142.777 236.116l1.01 1.435 4.176 11.963-10.123.015 3.968-12.024.969-1.389z"/><path fill="#fc5e49" d="M142.777 236.116l1.01 1.435-.532.333-.476-.38-.513.516-.458-.515.969-1.389z"/><path fill="#fcded6" d="M137.84 249.529l1.451 1.09 1.027-1.094-2.478.004zm2.478-.004l1.451 1.09 1.028-1.094-2.479.004zm2.479-.004l1.451 1.09 1.027-1.094-2.478.004zm2.478-.004l1.451 1.091 1.237-1.094-2.688.003z"/><path fill="#71606e" opacity=".2" style="mix-blend-mode:multiply" d="M142.777 236.111l1.01 1.435 4.176 11.968.001 61.662-3.216.005-.21-61.667-3.2-10.585.47-1.429.969-1.389z"/><path fill="#167f7f" d="M138.04 310.517h9.924v1.823h-9.924z"/><path fill="#2085b7" d="M161.869 249.514v61.666l-9.92.016-.211-61.667 10.131-.015z"/><path fill="#fcded6" d="M156.683 236.116l1.011 1.435 4.175 11.963-10.123.015 3.969-12.024.968-1.389z"/><path fill="#2085b7" d="M156.683 236.116l1.011 1.435-.532.333-.477-.38-.513.516-.457-.515.968-1.389z"/><path fill="#fcded6" d="M151.746 249.529l1.451 1.09 1.028-1.094-2.479.004z"/><path fill="#fcded6" d="M154.225 249.525l1.451 1.09 1.027-1.094-2.478.004zm2.478-.004l1.451 1.09 1.028-1.094-2.479.004zm2.479-.004l1.451 1.091 1.236-1.094-2.687.003z"/><path fill="#71606e" opacity=".2" style="mix-blend-mode:multiply" d="M156.683 236.111l1.011 1.435 4.175 11.968.002 61.662-3.216.005-.21-61.667-3.2-10.585.47-1.429.968-1.389z"/><path fill="#167f7f" d="M151.947 310.517h9.924v1.823h-9.924z"/><path d="M390.097 331.952h62.744a5.719 5.719 0 0 1 5.719 5.719h0a5.719 5.719 0 0 1-5.72 5.719H255.323a18.788 18.788 0 0 1-18.789-18.789v-22.263m-12.007 2.824v37.918a19 19 0 0 1-19 19h-6.68" fill="none" stroke="#63bace" stroke-linecap="round" stroke-linejoin="round" stroke-dasharray="3 2.5"/><path d="M249.237 294.087v15.69a11.39 11.39 0 0 0 11.39 11.39h68.697" fill="none" stroke="#63bace" stroke-linecap="round" stroke-linejoin="round" stroke-dasharray="3 2.5"/><path d="M300.502 94.003c-16.296-20.173-40.52-34.48-66.957-34.942-15.292-.267-31.404 1.76-45.059 9.046a101.857 101.857 0 0 0-30.922 25.896c-14.598 18.07-23.008 41.641-20.481 64.734 2.11 19.281 11.64 36.964 24.23 51.44 12.28 14.116 30.179 25.766 33.246 45.706.876 5.694-1.223 13.565 3.12 18.12 5.17 5.42 13.564 3.531 20.179 3.479q11.804-.094 23.609-.148c5.643-.03 14.661 1.535 18.92-3.332 4.342-4.553 2.244-12.425 3.12-18.119 2.31-15.021 14.023-27.191 24.805-36.977 12.374-11.232 22.181-24.146 27.707-40.09 10.23-29.521 3.976-60.682-15.517-84.813z" fill="#fdd247"/><path d="M224.119 294.694c-.07-9.747-.598-19.491-.954-29.231-.587-16.076-1.343-32.186-2.79-48.21-.847-9.37-2.112-18.574-5.238-27.503-2.175-6.214-5.9-14.316-12.855-16.33a9.325 9.325 0 0 0-11.602 6.884c-1.489 7.396 5.57 14.182 11.87 16.559 7.275 2.744 17.714 1.38 24.122-2.974 7.026-4.775 11.022-13.125 12.26-21.346.95-6.307.997-13.514-5.771-16.388-5.919-2.513-10.777 2.177-11.376 7.993-.626 6.08 1.083 12.694 3.447 18.244 2.325 5.462 6.246 11.523 12.431 12.962 8.776 2.042 18.628-3.02 24.587-9.152 4.326-4.452 11.526-14.074 5.733-20.064-2.656-2.746-6.987-2.991-10.329-1.517-4.355 1.922-7.447 6.182-9.918 10.086-5.62 8.88-8.21 19.316-9.089 29.697-1.021 12.062-1.183 24.254-1.584 36.35-.39 11.77-.676 23.543-.97 35.317-.15 6.039-.182 12.08-.257 18.121a.774.774 0 0 0 1.547 0c1.037-20.342 1.456-40.705 2.214-61.059.376-10.101.45-20.33 1.499-30.388.996-9.555 3.616-19.094 8.867-27.22 2.407-3.726 5.802-8.567 10.509-9.403 5.032-.893 8.083 3.13 6.911 7.8-1.872 7.462-9.243 14.184-16.018 17.222-3.982 1.786-9.207 3.113-13.534 1.914a13.172 13.172 0 0 1-6.419-4.534c-3.807-4.59-5.878-10.682-6.92-16.48-.77-4.28-1.706-11.75 3.297-14.01 2.64-1.192 5.806.376 7.58 2.375 2.116 2.383 1.886 5.863 1.702 8.854-.477 7.72-3.544 15.79-9.371 21.046-5.78 5.213-15.42 6.882-22.87 4.99-5.962-1.515-14.413-8.567-11.748-15.605 1.952-5.154 8.048-5.447 11.894-2.471 6.582 5.093 9.027 14.854 10.81 22.527 1.614 6.943 2.202 14.053 2.789 21.141 1.992 24.035 2.743 48.14 4.402 72.19l.11 1.613a.516.516 0 0 0 1.032 0z" fill="#fff"/><path fill="#17a59e" d="M201.833 277.187h53.34v5.263h-53.34z"/><path d="M258.252 300.655a3.104 3.104 0 0 1 .095-3.957l.331-.353a3.107 3.107 0 0 0 .135-3.909l-.539-.678a3.092 3.092 0 0 1 .245-4.02 3.094 3.094 0 0 0 .288-3.96l-1.428-1.905a2.758 2.758 0 0 0-2.206-1.104h-53.005a2.758 2.758 0 0 0-2.206 1.104l-1.428 1.904a3.094 3.094 0 0 0 .288 3.962 3.092 3.092 0 0 1 .244 4.019l-.538.678a3.107 3.107 0 0 0 .134 3.909l.331.353a3.104 3.104 0 0 1 .096 3.957l-.422.506a3.096 3.096 0 0 0 .15 4.014l.221.221a5.705 5.705 0 0 0 4.035 1.752h51.194a5.705 5.705 0 0 0 4.035-1.752l.221-.22a3.096 3.096 0 0 0 .15-4.015z" fill="#5a6a96"/><path fill="none" stroke="#304677" stroke-linecap="round" stroke-linejoin="round" d="M230.874 287.907h24.702m-49.405 0h13.694m-17.274 6.052h35.801m6.712 0h10.561m-49.494 6.051h19.154m12.53 0h7.697"/><path fill="none" stroke="#17a59e" stroke-linecap="round" stroke-linejoin="round" d="M223.296 287.907h2.775"/><path d="M300.502 94.003c-16.296-20.173-40.52-34.48-66.957-34.942a138.38 138.38 0 0 0-9.112.137c42.327 2.59 78.99 39.376 77.605 83.64-1.164 37.21-19.336 63.745-56.91 80.014-7.863 3.405-13.503 8.6-14.755 17.608-1.156 8.325 1.472 16.76-.256 25.06a7.011 7.011 0 0 1-1.538 3.471 7.618 7.618 0 0 1-3.082 1.727 55.568 55.568 0 0 1-28.911 1.832 8.542 8.542 0 0 0 1.093 1.452c5.17 5.42 13.564 3.532 20.179 3.48q11.804-.094 23.609-.148c5.643-.03 14.661 1.535 18.92-3.332 4.342-4.553 2.244-12.425 3.12-18.12 2.31-15.02 14.023-27.19 24.805-36.977 12.374-11.231 22.181-24.145 27.707-40.09 10.23-29.52 3.976-60.68-15.517-84.812z" fill="#ffb839" opacity=".2"/><path d="M447.765 312.256s-8.214-5.828-14.853-6.775c-13.053-1.861-20.512 3.304-27.563-.653-2.922-1.64 4.326-2.755 5.091-4.587a24.645 24.645 0 0 0 .042-2.797 4.532 4.532 0 0 1-3.443.124c-13.22-4.768-24.443-4.31-43.632-4.31-42.924 0-78.347 7.725-83.562 17.71h-.663v2.663h.006c.25 11.139 37.858 20.15 84.22 20.15 44.752 0 83.901-8.593 84.353-19.02zm-55.42 1.22c-6.072 0-10.994-1.773-10.994-3.958s4.922-3.958 10.995-3.958 10.995 1.772 10.995 3.958-4.923 3.957-10.995 3.957z" fill="#2dc1bd"/><path d="M447.633 311.174c-1.116-4.448-8.082-7.091-14.721-8.038-13.053-1.862-20.512 3.304-27.563-.653-4.11-2.306 11.901-3.577 1.69-7.26-13.22-4.769-24.443-4.31-43.632-4.31-46.516 0-84.225 9.071-84.225 20.261s37.709 20.261 84.225 20.261 86.978-9.282 84.226-20.26zm-55.287-.044c-6.073 0-10.995-1.772-10.995-3.958s4.922-3.957 10.995-3.957 10.995 1.772 10.995 3.957-4.923 3.958-10.995 3.958z" fill="#8fd8d3"/><path d="M325.655 313.37a4.961 4.961 0 0 0-1.396-1.523 15 15 0 0 0-4.237-2.338.772.772 0 0 0 .278-1.037 1.67 1.67 0 0 0-.895-.72 11.447 11.447 0 0 0-5.2-.514 78.17 78.17 0 0 0-10.516 1.068c-1.617.313-3.425.9-4.128 2.493a3.196 3.196 0 0 0-.176 2.018 4.77 4.77 0 0 1-1.292.38c-.43.136-.867.565-.738 1.026a1.076 1.076 0 0 0 .302.447c3.243 3.287 7.98 4.051 12.27 4.07a45.125 45.125 0 0 0 13.92-2.004 3.015 3.015 0 0 0 1.929-1.31 2.318 2.318 0 0 0-.121-2.057z" fill="#fc9549"/><path d="M358.035 302.256a4.963 4.963 0 0 0-1.395-1.522 14.998 14.998 0 0 0-4.237-2.338.772.772 0 0 0 .277-1.037 1.671 1.671 0 0 0-.894-.72 11.447 11.447 0 0 0-5.2-.514 78.17 78.17 0 0 0-10.517 1.068c-1.617.313-3.425.9-4.128 2.493a3.196 3.196 0 0 0-.176 2.018 4.774 4.774 0 0 1-1.291.38c-.43.136-.867.565-.739 1.026a1.076 1.076 0 0 0 .302.447c3.243 3.287 7.98 4.051 12.27 4.07a45.125 45.125 0 0 0 13.92-2.004 3.015 3.015 0 0 0 1.93-1.31 2.318 2.318 0 0 0-.122-2.057z" fill="#fc5e49"/><path d="M416.597 318.703a4.247 4.247 0 0 0-1.195-1.304 12.84 12.84 0 0 0-3.628-2.002.66.66 0 0 0 .238-.888 1.43 1.43 0 0 0-.766-.617 9.8 9.8 0 0 0-4.452-.439 66.918 66.918 0 0 0-9.005.914c-1.385.268-2.933.771-3.535 2.135a2.736 2.736 0 0 0-.15 1.728 4.088 4.088 0 0 1-1.106.325c-.369.116-.743.484-.633.879a.92.92 0 0 0 .259.382c2.777 2.815 6.833 3.47 10.506 3.485a38.635 38.635 0 0 0 11.92-1.715 2.581 2.581 0 0 0 1.65-1.122 1.985 1.985 0 0 0-.103-1.761z" fill="#2085b7"/><path d="M371.6 318.762a4.96 4.96 0 0 0-1.395-1.522 14.998 14.998 0 0 0-4.237-2.338.772.772 0 0 0 .278-1.037 1.67 1.67 0 0 0-.895-.72 11.447 11.447 0 0 0-5.2-.514 78.17 78.17 0 0 0-10.516 1.068c-1.617.313-3.425.9-4.128 2.493a3.196 3.196 0 0 0-.176 2.018 4.773 4.773 0 0 1-1.291.38c-.431.136-.867.565-.739 1.026a1.076 1.076 0 0 0 .302.447c3.243 3.287 7.98 4.051 12.27 4.07a45.124 45.124 0 0 0 13.92-2.004 3.015 3.015 0 0 0 1.929-1.31 2.318 2.318 0 0 0-.121-2.057z" fill="#fdd247"/><path d="M115.028 367.924c0 2.222-15.341 4.024-34.268 4.024-18.925 0-34.267-1.802-34.267-4.024 0-2.223 15.342-4.025 34.267-4.025 18.927 0 34.268 1.802 34.268 4.025z" fill="#dae4e5"/><path d="M43.918 353.601c-3.39-6.668-4.3-14.732-1.305-21.745 1.733-4.057 4.165-8.06 7.693-10.795a29.38 29.38 0 0 1 10.463-5.088 25.807 25.807 0 0 1 19.456 2.24 27.586 27.586 0 0 1 10.684 12.443c2.269 4.897 3.226 10.982 8.113 14.14 1.396.902 3.715 1.277 4.402 2.958.817 2-.67 3.987-1.463 5.722q-1.416 3.096-2.822 6.197c-.673 1.482-1.324 4.04-3.107 4.588-1.711.606-3.536-.874-5.138-1.315-4.227-1.162-8.811.486-12.659 2.171a27.913 27.913 0 0 1-13.82 2.568A25.294 25.294 0 0 1 43.918 353.6z" fill="#b3e5e1"/><path d="M102.338 355.46s-13.624-6.722-20.13-10.398a29.556 29.556 0 0 1-5.888-4.06c-1.526-1.36-4.618-4.569-2.635-6.687 2.34-2.502 5.097 1.582 5.077 3.86a8.666 8.666 0 0 1-3.184 5.74c-2.734 1.935-6.94 1.443-9.546-.166a2.176 2.176 0 0 1 1.343-4.01c2.111.14 8.056 4.59 6.687 8.166a8.084 8.084 0 0 1-4.057 4.252c-3.26 1.59-7.486-2.541-2.907-4.01 3.254-1.045 7.412.078 10.464 1.263 8.353 3.244 14.82 6.015 23.11 9.415" fill="none" stroke="#fff" stroke-miterlimit="10"/><path fill="#17a59e" d="M105.159 349.843l-6.288 14.042-1.386-.62 6.288-14.042z"/><path d="M103.3 366.841a.895.895 0 0 0-1.053-.441l-.132.045a.896.896 0 0 1-1.045-.425l-.115-.222a.892.892 0 0 0-1.087-.41.892.892 0 0 1-1.077-.39l-.333-.6a.796.796 0 0 1-.03-.712l6.248-13.953a.796.796 0 0 1 .551-.45l.67-.152a.892.892 0 0 1 1.009.543.892.892 0 0 0 1.029.538l.242-.062a.896.896 0 0 1 1.013.496l.054.13a.895.895 0 0 0 1.03.49l.183-.05a.893.893 0 0 1 1.04.512l.031.084a1.645 1.645 0 0 1-.014 1.27l-6.035 13.476a1.646 1.646 0 0 1-.937.855l-.084.032a.893.893 0 0 1-1.075-.433z" fill="#2dc1bd"/><path fill="none" stroke="#17a59e" stroke-linecap="round" stroke-linejoin="round" stroke-width=".5" d="M103.171 358.131l-2.912 6.503m5.825-13.006l-1.615 3.605m3.63-3.834l-4.221 9.425m-.791 1.767l-1.245 2.78m7.428-12.316l-2.258 5.042m-1.478 3.299l-.907 2.026m-.562-7.286l-.327.731"/><path d="M43.918 353.601c-3.39-6.668-4.3-14.732-1.305-21.745.342-.8.711-1.597 1.11-2.383-4.308 11.448 1.054 25.436 12.87 30.29 9.932 4.08 19.06 2.424 27.772-5.549 1.823-1.668 3.856-2.54 6.375-1.808 2.328.677 4.238 2.363 6.627 2.887a2.022 2.022 0 0 0 1.095.004 2.198 2.198 0 0 0 .818-.608 16.027 16.027 0 0 0 3.89-7.395 2.457 2.457 0 0 1 .254.46c.817 2-.67 3.987-1.463 5.722q-1.416 3.096-2.822 6.197c-.673 1.482-1.324 4.04-3.107 4.588-1.711.606-3.536-.874-5.138-1.315-4.227-1.162-8.811.486-12.659 2.171a27.915 27.915 0 0 1-13.82 2.568A25.294 25.294 0 0 1 43.918 353.6z" fill="#b3e5e1" opacity=".55"/><path d="M368.556 359.918c0 1.745-12.047 3.16-26.91 3.16-14.86 0-26.907-1.415-26.907-3.16s12.047-3.16 26.908-3.16c14.862 0 26.909 1.415 26.909 3.16z" fill="#dae4e5"/><path d="M369.13 350.56a19.242 19.242 0 0 0 1.299-16.107 19.803 19.803 0 0 0-5.541-8.123 21.796 21.796 0 0 0-7.682-3.932 19.143 19.143 0 0 0-14.463 1.365 20.463 20.463 0 0 0-8.114 9.065c-1.757 3.597-2.56 8.096-6.232 10.363-1.05.648-2.775.891-3.31 2.127-.637 1.47.436 2.967.998 4.266q1.003 2.318 1.998 4.64c.477 1.108.92 3.016 2.235 3.449 1.26.476 2.635-.594 3.83-.897 3.153-.798 6.528.495 9.355 1.803a20.706 20.706 0 0 0 10.21 2.114 18.763 18.763 0 0 0 15.417-10.132z" fill="#b3e5e1"/><path d="M325.775 351.05s10.206-4.778 15.087-7.405a21.898 21.898 0 0 0 4.45-2.94c2.974-2.548 2.733-4.51 1.502-5.24-1.553-.925-3.264.816-3.29 3.124a6.429 6.429 0 0 0 2.273 4.305c1.999 1.478 5.127 1.177 7.083.023.984-.58 1.306-3.095-.935-2.994-1.569.071-6.045 3.281-5.084 5.954a5.996 5.996 0 0 0 2.952 3.22 6.37 6.37 0 0 0 4.034.505c2.289-.693-.158-2.985-1.396-3.329a13.481 13.481 0 0 0-8.209.667c-6.244 2.279-11.083 4.235-17.283 6.63" fill="none" stroke="#fff" stroke-miterlimit="10"/><path fill="#17a59e" d="M324.806 346.402l4.45 10.51-1.037.439-4.45-10.51z"/><path d="M324.889 359.476a.664.664 0 0 1 .787-.312l.097.036a.665.665 0 0 0 .782-.3l.088-.162a.662.662 0 0 1 .813-.287.662.662 0 0 0 .804-.274l.256-.44a.59.59 0 0 0 .034-.527l-4.422-10.443a.59.59 0 0 0-.401-.343l-.495-.123a.662.662 0 0 0-.756.388.661.661 0 0 1-.772.383l-.178-.05a.665.665 0 0 0-.76.353l-.041.095a.664.664 0 0 1-.772.349l-.135-.041a.663.663 0 0 0-.778.364l-.025.062a1.22 1.22 0 0 0-.009.942l4.27 10.086a1.22 1.22 0 0 0 .683.65l.062.024a.662.662 0 0 0 .803-.305z" fill="#2dc1bd"/><path fill="none" stroke="#17a59e" stroke-linecap="round" stroke-linejoin="round" stroke-width=".5" d="M325.116 353.018l2.061 4.867m-4.121-9.734l1.142 2.698m-2.633-2.899l2.986 7.054m.56 1.323l.881 2.08m-5.321-9.247l1.598 3.774m1.045 2.469l.642 1.517m.528-5.395l.232.547"/><path d="M369.13 350.56a19.242 19.242 0 0 0 1.299-16.107 29.566 29.566 0 0 0-.787-1.783c3.02 8.555-1.17 18.848-10.006 22.268-7.429 2.874-14.173 1.507-20.513-4.539a4.69 4.69 0 0 0-4.7-1.438c-1.737.467-3.18 1.688-4.959 2.04a1.5 1.5 0 0 1-.812-.013 1.632 1.632 0 0 1-.597-.463 11.89 11.89 0 0 1-2.773-5.544 1.827 1.827 0 0 0-.195.337c-.637 1.47.436 2.967.998 4.266q1.003 2.318 1.998 4.64c.477 1.108.92 3.016 2.235 3.449 1.26.476 2.635-.594 3.83-.897 3.153-.798 6.528.495 9.355 1.803a20.706 20.706 0 0 0 10.21 2.114 18.763 18.763 0 0 0 15.417-10.132z" fill="#b3e5e1" opacity=".55"/><path d="M167.805 110.81c-7.74 10.37-15.094 23.309-14.913 47.027m36.124-68.875a16.14 16.14 0 0 0-3.91 3.64" fill="none" stroke="#ffe1b0" stroke-linecap="round" stroke-linejoin="round" stroke-width="16" style="mix-blend-mode:screen"/><path d="M206.794 386.678c0 3.587-15.98 6.497-35.692 6.497-19.71 0-35.69-2.91-35.69-6.497 0-3.588 15.98-6.498 35.69-6.498 19.713 0 35.692 2.91 35.692 6.498z" fill="#dae4e5"/><path d="M194.657 371.7h-31.17l15.552-5.072h31.606l-.117.334-15.027 4.604a2.724 2.724 0 0 1-.844.133z" fill="#0c877e"/><path d="M194.24 371.168h-30.462l15.26-4.54h30.898l-14.852 4.407a2.724 2.724 0 0 1-.844.133z" fill="#c5e6ef"/><path d="M191.757 370.404H171.54l10.128-3.013h20.506l-9.857 2.925a1.81 1.81 0 0 1-.56.088z" fill="#71c9c4" opacity=".55" style="mix-blend-mode:multiply"/><path d="M210.645 366.628h-31.606l3.984-17.477a1.49 1.49 0 0 1 1.441-.97h28.493a1.372 1.372 0 0 1 1.426 1.72z" fill="#0c877e"/><path d="M209.936 366.628H179.04l3.984-17.477a1.49 1.49 0 0 1 1.441-.97h27.785a1.372 1.372 0 0 1 1.426 1.72z" fill="#17a59e"/><path d="M208.571 365.54h-27.877l3.585-16.261a.014.014 0 0 1 .014-.01h27.866z" fill="#c5e6ef"/><path fill="none" stroke="#95c6c6" stroke-linecap="round" stroke-linejoin="round" stroke-width=".5" d="M205.61 362.435l-.216.977h-1"/><path fill="none" stroke-dasharray="1.81313 2.26642" stroke-linecap="round" stroke-linejoin="round" stroke-width=".5" stroke="#95c6c6" d="M202.128 363.412h-15.185"/><path fill="none" stroke="#95c6c6" stroke-linecap="round" stroke-linejoin="round" stroke-width=".5" d="M185.81 363.412h-1l.215-.977"/><path d="M185.588 359.88l1.87-8.476a.01.01 0 0 1 .009-.006h18.268" fill="none" stroke="#95c6c6" stroke-linecap="round" stroke-linejoin="round" stroke-width=".5" stroke-dasharray="2.09386 2.61732"/><path fill="none" stroke="#95c6c6" stroke-linecap="round" stroke-linejoin="round" stroke-width=".5" d="M207.044 351.398h1l-.216.976"/><path fill="none" stroke-dasharray="1.79173 2.23967" stroke-linecap="round" stroke-linejoin="round" stroke-width=".5" stroke="#95c6c6" d="M207.346 354.561l-1.495 6.78"/><path fill="none" stroke="#c5e6ef" stroke-miterlimit="10" stroke-width=".5" d="M171.54 369.578h25.358"/><path fill="none" stroke="#c5e6ef" stroke-miterlimit="10" stroke-width=".25" d="M176.216 368.281h25.357"/><path d="M168.915 367.964c1.06-.878 2.923-1.085 4.287-1.274a22.378 22.378 0 0 1 4.123-.06c.793.037.59.958-.092 1.072a7.965 7.965 0 0 1-2.359.038 3.77 3.77 0 0 1-2.078 1.378 8.48 8.48 0 0 1-2.52.24c-.238-.005-.538-.064-.587-.297" fill="#f39f86"/><path fill="none" stroke="#fff" stroke-miterlimit="10" stroke-width=".25" d="M202.21 357.477l-5.798-5.797"/><path d="M202.153 357.421a.282.282 0 1 1 0 .399.282.282 0 0 1 0-.399zm-2.178 1.979a.282.282 0 1 1 0 .398.282.282 0 0 1 0-.399zm-6.019-6.02a.282.282 0 1 1 0 .4.282.282 0 0 1 0-.4zm2.257-1.9a.282.282 0 1 1 0 .399.282.282 0 0 1 0-.399z" fill="#fff"/><path d="M194.156 353.58a4.55 4.55 0 0 1 6.018 6.019" fill="none" stroke="#fff" stroke-miterlimit="10" stroke-width=".25"/><path d="M195.49 355.081l3.743-.581-2.882 3.11a.844.844 0 1 0 .008.008l-.006-.005 3.024-2.97s-.441 2.586-.59 3.87a47.071 47.071 0 0 0-4.536 2.77c-.15.111-1.713-1.515-1.649-1.598.98-1.242 2.889-4.604 2.889-4.604z" fill="#fff"/><path d="M191.444 359.541l.628-.628a.3.3 0 0 1 .426 0l2.525 2.525a.3.3 0 0 1 .015.41.097.097 0 0 1-.015.016l-.628.628a.3.3 0 0 1-.426 0l-2.525-2.525a.3.3 0 0 1 0-.426z" fill="#fff"/><path d="M188.544 351.38a.896.896 0 1 1-.896-.897.896.896 0 0 1 .896.896zm-2.838 12.032a.896.896 0 1 1-.896-.897.896.896 0 0 1 .896.897z" fill="#95c6c6"/><circle cx="205.252" cy="363.412" r=".896" fill="#95c6c6"/><path d="M208.698 351.38a.896.896 0 1 1-.896-.897.896.896 0 0 1 .896.896z" fill="#95c6c6"/><path d="M145.745 370.17c-.628 2.19-.49 3.95-.904 6.191-.617 3.338-.864 7.182 1.385 9.725a6.573 6.573 0 0 0 5.51 2.567c2.07.03 4.126-.338 6.195-.393 1.389-.037 5.642.34 7.03.395 6.196.246 9.7-1.123 15.83-1.88a145.937 145.937 0 0 0 16.107-3.234c15.864-4.344 10.118-10.742 6.612-11.763-.763-.222-4.218-1.374-4.218-1.374l-4.635 1.295h-16.229a78.924 78.924 0 0 1-9.669-.992" fill="#023d5f"/><path d="M192.028 361.416a9.313 9.313 0 0 1 .973.66 11.403 11.403 0 0 0 2.208 1.084l2.225.901a.92.92 0 0 1 .698.9 16.186 16.186 0 0 1 .303 7.206 9.28 9.28 0 0 1-1.303-2.6 2.851 2.851 0 0 0-.613-1.27 3.668 3.668 0 0 0-.71-.45 7.588 7.588 0 0 1-1.964-1.867 1.22 1.22 0 0 1-.322-.585.756.756 0 0 0-.045-.24.442.442 0 0 0-.168-.155l-2.742-1.76" fill="#f39f86"/><path d="M148.427 370.17c-1.276-.943-2.666-2-3.988-3.103-3.01-2.529-5.7-5.275-6.033-7.275-.736-4.482-.161-17.802.195-24.088.011-.38.034-.736.057-1.069.357-5.942 3.552-8.573 5.15-9.539.815 7.723 2.654 25.157 2.803 26.054.196 1.149 1.816 19.02 1.816 19.02z" fill="#5a6a96"/><path d="M148.43 370.17a86.23 86.23 0 0 1-3.987-3.103c-.114-4.912-1.901-3.844-3.959-12.43a57.258 57.258 0 0 1-.58-20.737l4.906.746c.816 7.643 1.701 15.895 1.805 16.504.195 1.149 1.815 19.02 1.815 19.02z" fill="#37476d"/><path d="M151.485 321.64a16.612 16.612 0 0 0 .592-6.19c-.46-2.628-2.037-7.359-1.446-10.907s5.06-6.505 9.79-6.045c4.731.46 6.111 4.993 6.9 7.622s.657 6.636.46 8.804a6.09 6.09 0 0 1-2.169 4.337c-.788.46-3.755-.147-4.276.42s-.915 3.917-.915 3.917" fill="#f39f86"/><path d="M149.251 324.452a5.985 5.985 0 0 1 1.051-2.813c.789-.735 6.045-.735 7.622-.538a24.176 24.176 0 0 1 5.98 2.393c.514.384-.5 2.379-.5 2.379z" fill="#5a6a96"/><path d="M151.682 317.159s6.571.558 7.82 0a4.972 4.972 0 0 0 3.219-4.009c.164-2.234-.296-2.924.559-4.172.854-1.248 1.61-.821 1.74.361s.184 3.32.494 3.476c.418.212.916-1.292.755-3.574a14.123 14.123 0 0 0-.953-4.83c-.59-1.314-.911-1.24-1.445-1.478a4.08 4.08 0 0 0 2.332-2.086c1.316-2.054.592-5.253-2.89-5.24-6.084.022-12.55 1.215-12.682 5.716 0 0-2.135-.328-2.201 3.778s2.562 9.068 2.76 10.35-.165 1.412.492 1.708z" fill="#023d5f"/><path d="M169.944 365.435c.242 2.057 2.046 5.24.816 5.688a23.468 23.468 0 0 1-4.964-.149h-.07c-.045 0-.08-.011-.114-.011-2.184-.184-4.678-.426-6.77-.586-8.354-.357-12.618 1.31-13.457.838-.402-.24-.414-.965-.287-1.712a19.452 19.452 0 0 0 .138-5.54 100.907 100.907 0 0 0-.897-5.516c-1.379-7.32-4.08-18.503-4.482-25.226-.643-10.538 10.642-9.538 10.642-9.538 14.366-.897 21.112 3.24 21.893 9.412.058.437.092.908.127 1.402.368 6.367-1.575 16.641-2.494 24.318a38.667 38.667 0 0 0-.08 6.62z" fill="#5a6a96"/><path d="M169.944 365.435c.242 2.057 2.046 5.24.816 5.688a23.468 23.468 0 0 1-4.964-.149c2.218.161 2.631-1.54 2.137-2.678a16.248 16.248 0 0 1-1.425-6.803c.104-3.057 1.253-9.953 1.931-16.469a53.031 53.031 0 0 0 .011-11.423c.345.69 1.334 1.655 4.115 2.298.057 6.402-1.69 15.78-2.54 22.916a38.667 38.667 0 0 0-.08 6.62z" fill="#324775"/><path d="M162.88 325.096s6.584-.525 9.481 1.908c2.311 1.94 6.759 26.51 6.759 26.51l-6.149 2.543s-6.699-16.792-8.445-16.532" fill="#5a6a96"/><path d="M172.726 355.45c2.09 6.611 19.14 9.113 19.14 9.113l.95-3.035s-10.412-7.754-14.17-8.807" fill="#5a6a96"/><path d="M194.744 371.916c1.514.09 3.04.305 4.553.34.138.003.175-.223.034-.245a43.277 43.277 0 0 0-4.587-.338c-.156-.008-.155.233 0 .243zm-3.987 12.791c-5.653-.275-11.24 1.072-16.84 1.894s-11.533 1.08-16.7-1.23a2.119 2.119 0 0 0-2.792.32 8.253 8.253 0 0 1-3.051 1.482c-1.577.331-2.03-.06-3.619-.324a.692.692 0 0 0-.465.032c-.04.023-.044.063-.068.093a6.581 6.581 0 0 0 4.515 1.68c2.07.029 4.125-.339 6.194-.394 1.389-.037 5.642.34 7.03.395 6.196.246 9.7-1.123 15.83-1.88 2.543-.314 6.336-1.008 9.857-1.755a.793.793 0 0 0 .11-.313z" fill="#062f44"/><path d="M350.277 159.489a9.15 9.15 0 0 0-2.736-1.28c-1.42-.401-.704-1.45-2.179-1.198-2.808.47-9.279 1.769-13.2 2.846-.038.008-.068.01-.109.02-1.97.484-2.64 0-2.64 0l-.825.93.108.329a3.18 3.18 0 0 0-1.213 2.275c-.019.205-.224.999-.308 1.783-.094.72-.084 1.438.224 1.71l.018.018a.517.517 0 0 0 .113.037 10.764 10.764 0 0 0 3.632.504 90.388 90.388 0 0 0 11.42-1.101c2.792-.374 5.435-.738 7.144-.916a3.045 3.045 0 0 0 1.727-.784 2.68 2.68 0 0 0 .85-1.466c.327-1.55-.71-2.792-2.026-3.707z" fill="#2dc1bd"/><path d="M331.713 165.204a3.05 3.05 0 0 1-.43.793q-.125.154-.252.281c-2.905 2.907-6.566-.002-8.686-1.707-3.026-2.435-6.604-6.698-9.422-9.375-.088-.084-1.127-.97-1.012-1.121l2.588-3.397s6.96 6.308 11.05 7.737a26.55 26.55 0 0 1 4.763 1.942 5.082 5.082 0 0 1 .44.29 4.943 4.943 0 0 1 .961 4.557z" fill="#2dc1bd"/><path d="M342.582 166.362a90.367 90.367 0 0 1-11.42 1.101 10.764 10.764 0 0 1-3.632-.504.52.52 0 0 1-.112-.037l-.02-.019c-2.689-1.139-4.341-3.67-.223-1.709a13.82 13.82 0 0 0 2.325.943 8.407 8.407 0 0 0 1.531.14l.232.001c3.798-.016 14.9-8.338 11.32.084z" fill="#17a59e"/><path d="M360.758 182.45a11.734 11.734 0 0 0-.527 6.769c.997 4.486-.137 4.787-.137 4.787a57.695 57.695 0 0 1-11.139 5.437c-3.624 1.128-6.713.938-6.627-3.064l.003-.055.018-.702c.17-8.995-1.705-9.452-2.167-19.523-.477-10.332-.375-16.45 2.934-18.117 3.605-1.815 8.565-3.064 15.599-1.401 5.284 1.244 7.024 2.647 6.982 6.557a30.664 30.664 0 0 1-.57 4.813 86.85 86.85 0 0 1-4.37 14.499z" fill="#2dc1bd"/><path d="M360.758 182.45a11.734 11.734 0 0 0-.527 6.769c.997 4.486-.137 4.787-.137 4.787a57.695 57.695 0 0 1-11.139 5.437l-4.725-.448-1.892-1.486-.007-1.185.018-.702a35 35 0 0 0 7.136-.186 29.617 29.617 0 0 0 6.997-1.753 2.727 2.727 0 0 0 1.72-3.031 39.179 39.179 0 0 1-.654-6.274 33.41 33.41 0 0 1 1.68-7.741 15.607 15.607 0 0 0 .63-5.724 51.137 51.137 0 0 1 .006-6.524l3.746-2.029 2.087.778a30.664 30.664 0 0 1-.57 4.813 86.85 86.85 0 0 1-4.37 14.499z" fill="#17a59e"/><path d="M344.751 141.375a8.86 8.86 0 0 1-2.006-6.3c.2-2.168.873-4.278 4.12-5.063 1.784-.431 4.316.91 6.128 2.931 5.654.473 7.496 4.363 7.72 8.784l-6.64-1.48z" fill="#023d5f"/><path d="M359.515 144.215c-.128 5.063-4.495 7.998-4.495 7.998l.291 4.608-2.946 1.91-2.021 1.308-1.161-2.424-.16-2.971a1.532 1.532 0 0 0-1.215-1.412 5.573 5.573 0 0 1-2.873-1.737 1.924 1.924 0 0 1-.184-.227l-.007-.004c-1.914-2.608-2.639-12.6 3.915-15.435 6.769-2.937 10.988 3.316 10.856 8.386z" fill="#f39f86"/><path d="M347.997 160.322s-2.89 17.967-1.794 26.574l2.02 3.674 2.207-4.007s-2.114-15.008-.95-25.937z" fill="#16405a"/><path d="M347.617 158.793l.03.236a4.68 4.68 0 0 0 .35 1.293l1.484.304 1.292-.963-1.482-1.723-.23.059a3.277 3.277 0 0 0-1.422.775z" fill="#103649"/><path d="M355.276 154.673a4.71 4.71 0 0 1 1.42 1.461 18.716 18.716 0 0 0-1.82.953c-.773.472-4.492 3.099-4.492 3.099l-1.093-2.246s3.883-2.678 5.985-3.267zm-5.986 3.267a3.11 3.11 0 0 0-1.7 1.417 4.596 4.596 0 0 1 .185-3.545 5.88 5.88 0 0 1 1.262-.916z" fill="#17a59e"/><path d="M328.217 282.178c0 2.125 12.991 3.85 29.018 3.85 16.024 0 29.015-1.725 29.015-3.85 0-2.126-12.99-3.85-29.015-3.85-16.027 0-29.018 1.724-29.018 3.85z" fill="#dae4e5" opacity=".5"/><path d="M343.5 277.118a6.484 6.484 0 0 0-.45 2.188c.064.868 2.83.933 3.153.482s.482-4.44.482-4.44" fill="#f39f86"/><path d="M346.934 280.555a18.474 18.474 0 0 1-.252 2.38h-3.19l-.156-.531a5.01 5.01 0 0 1-1.846.532h-2.692c-1.97 0-3.089-.251-3.139-.598-.208-1.449 2.146-1.383 2.759-1.383 1.76 0 3.665-.824 4.08-1.717.302-.648.168-.812.533-.691a.911.911 0 0 1 .546.472 1.616 1.616 0 0 0 1.663.907 1.925 1.925 0 0 0 1.078-.52 1.163 1.163 0 0 1 .616 1.149z" fill="#3a3a3a"/><path d="M374.524 274.11a26.017 26.017 0 0 0 .972 3.118c.381.783 2.975-.182 3.107-.72s-1.196-4.303-1.196-4.303" fill="#f39f86"/><path d="M379.566 276.95c.336.84.833 2.471.833 2.471l-2.417 1.442-.474-.358a4.714 4.714 0 0 1-1.272 1.329 10.363 10.363 0 0 1-2.393.991c-2.208.504-3.914.26-4.089-.043-.73-1.269 2.197-1.967 2.766-2.193a3.946 3.946 0 0 0 2.439-3.22c.04-.714-.145-.817.238-.839a.911.911 0 0 1 .682.236 1.616 1.616 0 0 0 1.881.227 1.925 1.925 0 0 0 .809-.882 1.163 1.163 0 0 1 .997.838z" fill="#3a3a3a"/><path d="M363.319 211.915s4.333-10.376-3.225-17.909c0 0-6.45 2.887-11.613 3.236a25.544 25.544 0 0 1-6.132-.147 131.7 131.7 0 0 0-.413 19.391zm-16.254 66.204c-.131.009-.262.009-.383.009a21.858 21.858 0 0 1-4.221-.29v-.775c.15-11.877-1.289-31.291-1.569-37.426a6.827 6.827 0 0 1 .037-1.177c.467-4.491 5.108-3.903 7.06.224a16.47 16.47 0 0 1 1.102 3.175 29.016 29.016 0 0 1 .719 4.482c.906 10.254-1.952 24.12-2.745 31.778z" fill="#023d5f"/><path d="M355.114 216.703a6.758 6.758 0 0 1-.075.383c-1.027 5.406-4.36 20.02-5.948 24.764v.01a2.855 2.855 0 0 1-2.045 1.493c-2.335.635-5.818-.233-6.117-4.893a11.376 11.376 0 0 1 .02-1.68c.307-3.783 1.138-24.681 1.307-26.698.158-2.017.522-4.958 1.587-5.332 5.313-1.84 12.662 4.389 11.271 11.953z" fill="#023d5f"/><path d="M350.155 238.215c1.705-6.321 4.052-16.748 4.884-21.13l-1.13-5.014-5.434-6.518-3.035-.42s.495 9.851 4.043 17.677c0 0-.037 11.112-1.494 15.874l-1.307 3.66s.15.356.364 1.01a33.318 33.318 0 0 1 1.382 14.24c-1.083 8.404-1.746 20.534-1.746 20.534.121 0 .252 0 .383-.01.766-7.396 3.449-20.578 2.814-30.708a4.189 4.189 0 0 0-.069-1.069 26.078 26.078 0 0 1 .345-8.126z" fill="#062f44"/><path d="M365.699 238.381c-3.597-3.383-8.6-1.782-6.264 3.47 2.5 5.614 10.228 21.203 14.417 32.315l.29.723a22.745 22.745 0 0 0 4.385-1.42c-1.994-7.214-3.444-19.644-7.588-28.306a23.43 23.43 0 0 0-5.24-6.782z" fill="#023d5f"/><path d="M345.436 205.136c-.699-8.354 9.713-2.806 14.707-.048 2.102 1.161 2.871 3.484 3.153 5.67.283 2.187 2.982 24.698 3.523 28.806 1.222 9.259-6.865 4.196-7.63 1.63-1.928-6.477-13.373-31.506-13.753-36.058z" fill="#023d5f"/><path d="M366.103 233.825s.33 4.43 4.052 9.894c0 0-6.09-2.812-6.386-3.226a22.865 22.865 0 0 1-1.241-5.16c.118-.455 3.575-1.508 3.575-1.508z" fill="#023d5f"/><path d="M294.895 131.043c4.664-2.848 6.01-5.586 6.01-5.586a10.22 10.22 0 0 0 .11-1.755c-.033-2.2-.7-5.873-4.533-7.287-5.654-2.074-9.302 1.754-13.198-5.015 0 0 .008.036.02.105.992 6.318.008 19.582 11.591 19.538z" fill="#fff"/><path d="M294.895 131.043c4.664-2.848 6.01-5.586 6.01-5.586a10.22 10.22 0 0 0 .11-1.755c-13.027 12.274-17.403-10.473-17.712-12.197.993 6.318.01 19.582 11.592 19.538z" fill="#ffe7c5" style="mix-blend-mode:multiply"/><path d="M283.303 111.505l.111.258c.07.17.177.417.336.718a11.28 11.28 0 0 0 1.562 2.329 12.033 12.033 0 0 0 2.997 2.537 7.836 7.836 0 0 0 2.022.825 18.379 18.379 0 0 0 2.264.39 16.435 16.435 0 0 1 2.327.41 6.304 6.304 0 0 1 2.124.994 5.84 5.84 0 0 1 2.275 3.377 5.546 5.546 0 0 1 .165 1.626 6.643 6.643 0 0 1-.174 1.237 4.972 4.972 0 0 1-.228.765l-.092.266.059-.276a6.785 6.785 0 0 0 .14-.777 6.338 6.338 0 0 0-.207-2.748 5.812 5.812 0 0 0-2.24-3.044 5.727 5.727 0 0 0-1.96-.872c-.73-.173-1.494-.277-2.267-.398a18.88 18.88 0 0 1-2.321-.45 7.388 7.388 0 0 1-2.116-.949 12.061 12.061 0 0 1-2.982-2.74 11.45 11.45 0 0 1-1.432-2.464 8.162 8.162 0 0 1-.275-.747z" fill="#ffe7c5"/><path d="M283.303 111.505a17.482 17.482 0 0 0 1.236 3.423 15.788 15.788 0 0 0 1.92 3.158 12.079 12.079 0 0 0 3.057 2.86 14.18 14.18 0 0 0 1.89.992 19.068 19.068 0 0 1 1.914.966 8.394 8.394 0 0 1 2.85 2.535 5.446 5.446 0 0 1 .924 2.522 4.385 4.385 0 0 1 .034.748l-.004.263-.033-.261a6.266 6.266 0 0 0-.122-.73 5.866 5.866 0 0 0-1.092-2.332 9.223 9.223 0 0 0-2.82-2.285 18.428 18.428 0 0 0-1.882-.9 11.28 11.28 0 0 1-1.969-1.044 12.569 12.569 0 0 1-3.142-3.037 16.184 16.184 0 0 1-1.809-3.332 14.758 14.758 0 0 1-.952-3.546z" fill="#ffe7c5"/><path d="M370.294 214.538a2.828 2.828 0 0 1-.877-.193c-3.355-1.305-4.234-8.867-4.324-9.724l-.1-.977.934.3c.827.267 8.105 2.7 8.794 6.125a3.21 3.21 0 0 1-1.353 3.125 4.386 4.386 0 0 1-3.074 1.344zm-3.792-9.035c.39 2.528 1.446 6.897 3.38 7.649.74.286 1.629-.024 2.644-.924a2.023 2.023 0 0 0 .939-1.905c-.4-1.983-4.537-3.913-6.963-4.82z" fill="#17a59e"/><path fill="#ffc25b" d="M296.582 133.037l6.145-5.443 66.427 74.998-6.145 5.443z"/><path fill="#ffa92c" d="M294.719 130.864l6.145-5.443 1.898 2.142-6.146 5.443z"/><path fill="#fc9549" d="M296.582 133.037l6.145-5.443 66.427 74.998-6.145 5.443z"/><path fill="#0b0b3a" d="M294.719 130.864l6.145-5.443 1.898 2.142-6.146 5.443z"/><path fill="#71606e" opacity=".2" style="mix-blend-mode:multiply" d="M365.292 205.979l-2.331 2.061-66.342-75.047-1.9-2.139 2.319-2.074 1.901 2.139 66.353 75.06z"/><path fill="#17a59e" d="M361.914 206.866l6.145-5.443 1.062 1.2-6.145 5.442z"/><path d="M357.201 196.894l-2.158-1.795s-.814 1.059-1.22 1.186c-.109.034-.339-.055-.453-.055a3.838 3.838 0 0 0-1.743.54c-.508.233-1.178.445-1.205.649s.326.524.68.498a.963.963 0 0 0 .176-.037.787.787 0 0 0 .04.215c.147.452 2.266 3.41 4.372.193a6.052 6.052 0 0 1 1.511-1.394z" fill="#f39f86"/><path d="M359.144 168.388c.96 2.952 1.982 7.618 3.912 11.571a2.762 2.762 0 0 0 .123.248c.01.02.021.031.031.052a3.386 3.386 0 0 0 .145.433 3.525 3.525 0 0 0 3.447 2.364c.104 0 .382.01.733.03a13.295 13.295 0 0 0 1.435 0c.599-.04 1.125-.154 1.3-.453a.01.01 0 0 0 .011-.01 1.831 1.831 0 0 0 .072-.3.791.791 0 0 0 .031-.165.901.901 0 0 0 .031-.176c.02-.165.031-.33.041-.495a1.993 1.993 0 0 0 .01-.248 16.928 16.928 0 0 0-.195-2.415c-.31-3.324-3.592-13.728-4.707-18.063a2.995 2.995 0 0 0-1.022-1.6 2.643 2.643 0 0 0-1.559-.62c-.01 0-.01 0-.02-.01a1.99 1.99 0 0 0-.248 0c-1.455.041-2.457 1.187-3.127 2.56a8.91 8.91 0 0 0-.857 2.88 10.199 10.199 0 0 0 .413 4.417z" fill="#2dc1bd"/><path d="M354.148 195.659l1.817 1.641.01.01.475.413s3.685-3.2 6.554-5.904a32.651 32.651 0 0 0 7.04-8.69 11.4 11.4 0 0 0 .237-.486v-.02a1.831 1.831 0 0 0 .072-.3.791.791 0 0 0 .031-.165.901.901 0 0 0 .031-.176c.02-.165.031-.33.041-.495a1.993 1.993 0 0 0 .01-.248 3.02 3.02 0 0 0-.67-1.94c-.042-.052-.093-.104-.134-.155a3.04 3.04 0 0 0-.723-.527 2.996 2.996 0 0 0-.537-.227 5.112 5.112 0 0 0-4.108.558 6.068 6.068 0 0 0-.35.371 17.8 17.8 0 0 0-.765.888 14.885 14.885 0 0 0-1.981 3.313c-1.755 4.057-7.05 12.139-7.05 12.139z" fill="#2dc1bd"/><path d="M343.942 138.043s4.351-.867 7.689.93a6.152 6.152 0 0 0 5.534.18l1.256-.59s-1.241-1.44-1.43-1.566a10.939 10.939 0 0 0-1.904-1.613c-.648-.27-3.37-1.15-3.717-1.207a7.498 7.498 0 0 0-2.182.005 5.474 5.474 0 0 0-1.705.575c-.44.211-1.699 1.004-1.699 1.004z" fill="#023d5f"/><path d="M312.55 153.237s-3.131-2.726-3.292-4.639c-.177-2.113 1.307-3.127 2.285-1.962 1.537 1.833 1.262 4.833 1.262 4.833l.577.678z" fill="#f39f86"/><path d="M355.965 197.3l.01.01.475.413s3.685-3.2 6.554-5.904a32.651 32.651 0 0 0 7.04-8.69 11.4 11.4 0 0 0 .237-.486v-.02a1.831 1.831 0 0 0 .072-.3.791.791 0 0 0 .031-.165.901.901 0 0 0 .031-.176c.02-.165.031-.33.041-.495a1.993 1.993 0 0 0 .01-.248 16.928 16.928 0 0 0-.195-2.415c-.31-3.324-3.592-13.728-4.707-18.063a2.995 2.995 0 0 0-1.022-1.6 2.643 2.643 0 0 0-1.559-.62c-.01 0-.01 0-.02-.01a1.99 1.99 0 0 0-.248 0c.692 1.115 1.672 3.365 2.777 7.876 1.465 6.017 2.497 9.65 2.91 11.983a8.144 8.144 0 0 1 .186 2.509 7.769 7.769 0 0 1-1.053 2.188c-2.528 4.19-8.949 12.417-11.57 14.213z" fill="#17a59e"/><path d="M355.02 152.213a16.904 16.904 0 0 1-.471-3.754s2.147-1.517 2.147-3.065c0-2.154-2.397 0-2.397 0a15.734 15.734 0 0 1-.613-3.032c-.194-2.42 3.87-4.193 3.87-4.193l2.13 1.548 1.028 2.01s.09 8.434-5.694 10.486z" fill="#023d5f"/><path d="M279.594 211.06l-26.237 15.115a.725.725 0 0 1-.993-.27l-2.082-3.615a.726.726 0 0 1 .264-.995l26.236-15.114a.728.728 0 0 1 .994.27l2.082 3.614a.728.728 0 0 1-.264.995z" fill="#8fd8d3"/><path d="M276.203 207.999a.123.123 0 0 1-.17-.046l-.58-1.007.215-.123.58 1.007a.123.123 0 0 1-.045.169zm-.8-.377a.06.06 0 0 1-.082-.022l-.25-.433.108-.062.25.433a.062.062 0 0 1-.026.084zm-.12.907a.124.124 0 0 1-.17-.046l-.58-1.007.216-.124.58 1.007a.124.124 0 0 1-.046.17zm-.8-.377a.062.062 0 0 1-.085-.02l-.25-.434.107-.061.25.433a.06.06 0 0 1-.022.082zm-.119.906a.128.128 0 0 1-.174-.043l-.58-1.007.22-.126.58 1.007a.126.126 0 0 1-.046.17zm-.8-.376a.062.062 0 0 1-.086-.02l-.25-.434.108-.062.25.434a.06.06 0 0 1-.022.082zm-.124.908a.124.124 0 0 1-.169-.045l-.58-1.007.215-.124.58 1.007a.124.124 0 0 1-.046.17zm-.8-.376a.06.06 0 0 1-.081-.022l-.25-.434.107-.062.25.434a.062.062 0 0 1-.026.084zm-.119.906a.124.124 0 0 1-.17-.046l-.58-1.007.216-.124.58 1.007a.124.124 0 0 1-.046.17zm-.8-.377a.06.06 0 0 1-.082-.022l-.25-.434.108-.061.25.433a.062.062 0 0 1-.026.084zm-.119.907a.123.123 0 0 1-.17-.046l-.58-1.007.215-.124.58 1.007a.124.124 0 0 1-.045.17zm-.8-.377a.062.062 0 0 1-.086-.02l-.25-.434.108-.062.25.434a.061.061 0 0 1-.022.082zm-.12.907a.127.127 0 0 1-.173-.044l-.58-1.007.219-.126.58 1.007a.126.126 0 0 1-.046.17zm-.8-.378a.062.062 0 0 1-.085-.02l-.25-.433.107-.062.25.434a.06.06 0 0 1-.022.081zm-.123.909a.123.123 0 0 1-.17-.046l-.58-1.006.215-.124.58 1.007a.123.123 0 0 1-.045.17zm-.8-.377a.06.06 0 0 1-.082-.022l-.25-.433.108-.062.25.434a.062.062 0 0 1-.026.083zm-.119.906a.123.123 0 0 1-.17-.045l-.58-1.007.215-.124.58 1.007a.123.123 0 0 1-.045.17zm-.8-.376a.06.06 0 0 1-.082-.022l-.25-.434.107-.062.25.434a.062.062 0 0 1-.026.084zm-.12.906a.124.124 0 0 1-.17-.045l-.58-1.007.216-.124.58 1.007a.124.124 0 0 1-.046.17zm-.8-.376a.062.062 0 0 1-.085-.02l-.25-.434.107-.062.25.434a.06.06 0 0 1-.022.082zm-.12.906a.128.128 0 0 1-.173-.043l-.58-1.007.22-.126.58 1.007a.126.126 0 0 1-.046.169zm-.8-.377a.062.062 0 0 1-.085-.02l-.25-.433.108-.062.25.434a.06.06 0 0 1-.022.081zm-.123.909a.124.124 0 0 1-.169-.045l-.58-1.008.215-.123.58 1.007a.124.124 0 0 1-.046.169zm-.8-.377a.06.06 0 0 1-.081-.022l-.25-.433.107-.062.25.433a.062.062 0 0 1-.026.084zm-.119.907a.124.124 0 0 1-.17-.046l-.58-1.007.215-.124.58 1.007a.123.123 0 0 1-.045.17zm-.8-.377a.06.06 0 0 1-.082-.022l-.25-.434.108-.062.25.434a.062.062 0 0 1-.026.084zm-.119.906a.124.124 0 0 1-.17-.045l-.58-1.007.215-.124.58 1.007a.124.124 0 0 1-.045.17zm-.801-.376a.062.062 0 0 1-.085-.02l-.25-.434.108-.062.25.434a.06.06 0 0 1-.023.082zm-.118.905a.127.127 0 0 1-.174-.042l-.58-1.007.219-.126.58 1.006a.127.127 0 0 1-.046.17zm-.8-.376a.062.062 0 0 1-.086-.02l-.25-.433.107-.062.25.434a.06.06 0 0 1-.022.081zm-.124.909a.124.124 0 0 1-.17-.046l-.58-1.007.215-.124.58 1.007a.124.124 0 0 1-.045.17zm-.8-.377a.06.06 0 0 1-.082-.022l-.25-.434.108-.061.25.433a.062.062 0 0 1-.026.084zm-.12.906a.123.123 0 0 1-.169-.045l-.58-1.007.215-.124.58 1.007a.123.123 0 0 1-.046.17zm-.8-.376a.06.06 0 0 1-.081-.022l-.25-.434.107-.062.25.434a.062.062 0 0 1-.026.084zm-.119.906a.124.124 0 0 1-.17-.045l-.58-1.007.215-.124.58 1.007a.124.124 0 0 1-.045.17zm-.8-.377a.062.062 0 0 1-.086-.02l-.25-.433.108-.062.25.434a.06.06 0 0 1-.022.081zm-.119.907a.128.128 0 0 1-.174-.043l-.58-1.007.22-.127.58 1.007a.127.127 0 0 1-.046.17zm-.8-.377a.062.062 0 0 1-.086-.02l-.25-.433.108-.062.25.434a.06.06 0 0 1-.022.081zm-.124.909a.124.124 0 0 1-.17-.046l-.58-1.007.216-.124.58 1.007a.124.124 0 0 1-.046.17zm-.8-.377a.06.06 0 0 1-.081-.022l-.25-.434.107-.062.25.434a.062.062 0 0 1-.026.084zm-.119.906a.124.124 0 0 1-.17-.045l-.58-1.007.215-.124.58 1.007a.123.123 0 0 1-.045.17zm-.8-.376a.06.06 0 0 1-.082-.022l-.25-.434.108-.062.25.434a.062.062 0 0 1-.026.084zm-.12.906a.124.124 0 0 1-.169-.046l-.58-1.006.215-.124.58 1.007a.124.124 0 0 1-.046.17zm-.8-.377a.062.062 0 0 1-.085-.02l-.25-.433.107-.062.25.434a.06.06 0 0 1-.022.081zm-.119.907a.127.127 0 0 1-.173-.044l-.58-1.007.219-.126.58 1.007a.126.126 0 0 1-.046.17zm-.8-.377a.062.062 0 0 1-.086-.02l-.25-.433.108-.062.25.433a.06.06 0 0 1-.022.082zm-.123.909a.123.123 0 0 1-.17-.046l-.58-1.007.215-.124.58 1.007a.123.123 0 0 1-.045.17zm-.8-.377a.06.06 0 0 1-.082-.022l-.25-.434.108-.062.25.434a.062.062 0 0 1-.026.084zm-.12.906a.123.123 0 0 1-.169-.045l-.58-1.007.215-.124.58 1.007a.123.123 0 0 1-.046.17zm-.8-.376a.06.06 0 0 1-.081-.022l-.25-.434.107-.062.25.434a.062.062 0 0 1-.026.084zm-.119.906a.123.123 0 0 1-.17-.046l-.58-1.007.215-.123.58 1.007a.123.123 0 0 1-.045.169zm-.8-.377a.062.062 0 0 1-.086-.02l-.25-.433.108-.062.25.434a.06.06 0 0 1-.022.081z" opacity=".55" fill="#afd4dd"/><path d="M324.718 367.663c0 2.13-11.487 3.86-25.657 3.86-14.168 0-25.654-1.73-25.654-3.86 0-2.131 11.486-3.86 25.654-3.86 14.17 0 25.657 1.729 25.657 3.86z" fill="#dae4e5"/><path d="M305.69 359.472s.087 3.53.154 4.43 2.933.967 3.266.5.5-4.599.5-4.599" fill="#f39f86"/><path d="M309.868 365.196a19.132 19.132 0 0 1-.261 2.467h-3.304l-.162-.552a5.19 5.19 0 0 1-1.912.552h-2.788c-2.041 0-3.2-.26-3.252-.62-.215-1.5 2.223-1.432 2.858-1.432 1.823 0 3.796-.853 4.226-1.779.312-.671.174-.841.551-.715a.944.944 0 0 1 .567.488 1.674 1.674 0 0 0 1.722.94 1.994 1.994 0 0 0 1.116-.538 1.205 1.205 0 0 1 .639 1.19z" fill="#3a3a3a"/><path d="M294.099 358.521a26.984 26.984 0 0 0 1.006 3.23c.395.81 3.082-.189 3.22-.746s-1.24-4.457-1.24-4.457" fill="#f39f86"/><path d="M299.322 361.462c.347.871.862 2.56.862 2.56l-2.503 1.493-.492-.37a4.88 4.88 0 0 1-1.317 1.376 10.737 10.737 0 0 1-2.479 1.027c-2.287.523-4.054.27-4.235-.045-.756-1.314 2.275-2.037 2.865-2.272a4.087 4.087 0 0 0 2.526-3.334c.041-.74-.15-.847.247-.87a.944.944 0 0 1 .707.245 1.674 1.674 0 0 0 1.948.235 1.993 1.993 0 0 0 .837-.914 1.205 1.205 0 0 1 1.034.869z" fill="#3a3a3a"/><path d="M311.736 278.32a80.171 80.171 0 0 0 3.71-2.886c2.801-2.352 5.303-4.908 5.613-6.768.685-4.17.15-16.562-.181-22.41a24.783 24.783 0 0 0-.054-.994c-.331-5.528-3.304-7.976-4.79-8.875-.759 7.185-2.47 23.405-2.609 24.239-.181 1.069-1.689 17.695-1.689 17.695z" fill="#5a6a96"/><path d="M311.733 278.32a80.163 80.163 0 0 0 3.71-2.886c.106-4.57 1.466-10.95 3.38-18.937 2.272-10.068.843-11.92.843-11.92l-4.565.695c-.76 7.11-1.583 14.787-1.679 15.354-.182 1.069-1.689 17.695-1.689 17.695z" fill="#afd4dd"/><path d="M300.76 316.145a109.99 109.99 0 0 0 1.418 14.044c.608 3.116 10.401 3.688 9.142 1.287-1.817-3.486 1.352-14.417 2.909-33.055.225-2.82 1.493-3.145 2.334-8.946a17.793 17.793 0 0 0-2.363-10.85l-13.59-1.262-.176 16.928-.052 5.724s-.031 7.852.379 16.13z" fill="#023d5f"/><path d="M310.122 329.3s2.658 3.256 2.288 9.23-2.45 23.802-2.45 23.802-3.119.461-4.727-.133c0 0-3.362-33.065-3.376-36.82-.013-3.755 8.265 3.92 8.265 3.92z" fill="#023d5f"/><path d="M300.76 316.145a104.93 104.93 0 0 1 3.949-10.987 21.184 21.184 0 0 1 3.853-5.967c6.895-7.235 2.153-16.59 2.153-16.59s-5.615 4.65-6.007 5.132c-.371.45-2.617 4.4-4.274 6.558l-.052 5.724s-.031 7.852.379 16.13z" fill="#062f44"/><path d="M284.648 313.917s-3.081 10.14-2.592 13.32 11.757 32.914 11.757 32.914a11.356 11.356 0 0 0 4.52-1.119s-.242-13.09-2.452-21.282c-2.21-8.19-4.778-13.203-6.979-13.937s-3.643-8.192-4.254-9.896z" fill="#023d5f"/><path d="M294.611 319.94s-3.343 5.322-1.286 10.1-3.445 3.982-3.445 3.982-2.75-8.008-2.14-9.047c.612-1.04 2.874-4.524 3.607-4.707a31.926 31.926 0 0 1 3.264-.328z" fill="#16405a"/><path d="M291.24 277.63s-7.15 33.1-8.084 42.02c-.396 3.781 3.579 10.028 7.247 6.608 4.378-4.082 11.467-22.768 13.667-26.07s10.435-6.326 4.811-23.076" fill="#023d5f"/><path d="M308.891 233.171a15.455 15.455 0 0 1-.55-5.758c.428-2.445 1.895-6.846 1.345-10.147s-4.707-6.052-9.108-5.624-5.685 4.646-6.419 7.091a25.224 25.224 0 0 0-.428 8.191 5.666 5.666 0 0 0 2.017 4.035c.734.428 3.494-.137 3.978.39s.852 3.644.852 3.644" fill="#f39f86"/><path d="M310.97 235.788a5.568 5.568 0 0 0-.979-2.616c-.733-.685-5.623-.685-7.09-.501a22.493 22.493 0 0 0-5.563 2.226c-.479.357.465 2.213.465 2.213z" fill="#5a6a96"/><path d="M259.861 216.605c.035-.347.483-.181.6.104a1.987 1.987 0 0 1 .065.247c-.044-.571-.074-1.037-.062-1.151.033-.33.447-.21.59.047a5.24 5.24 0 0 1-.009-.477c.036-.422.487-.25.604.098a5.03 5.03 0 0 1 .106.584 2.87 2.87 0 0 1-.005-.32c.035-.347.435-.26.552.025a4.43 4.43 0 0 1 .124.672c.055.347.157.72.206 1.07a7.17 7.17 0 0 0 .223.99 4.333 4.333 0 0 0 1.607 1.242l.952-.518a12.575 12.575 0 0 1 .23 2.212c-.064.513-.438 1.155-.396 1.464a7.5 7.5 0 0 0 .396 1.134l-2.63 1.09a6.68 6.68 0 0 0-.706-1.935 21.287 21.287 0 0 1-1.796-2.16 11.38 11.38 0 0 1-.396-1.304l-.186-.98-.084-.956s.003-1.064.015-1.178z" fill="#f39f86"/><path d="M262.554 224.53s.888 5.143 1.764 9.26a40.097 40.097 0 0 0 3.069 9.483c.01.021.01.053.021.075.866 1.882 2.48 4.18 3.582 4.416a33.303 33.303 0 0 0 4.961-.022c2.395.14 8.414-.652 13.536-1.336l.235-.032c2.384-.321 4.565-.61 6.062-.77a3.13 3.13 0 0 0 1.85-.823 2.815 2.815 0 0 0 .898-1.55c.01-.011.01-.011.01-.022.343-1.657-.748-2.983-2.16-3.956a2.149 2.149 0 0 0-.202-.128c1.742-1.733 3.528-3.625 3.528-3.625s-4.918.235-7.666.417c-1.871.128-14.637 3.539-16.166 4.02-.118.043-.224.086-.331.118 0 0-.193.021-.481.085-.086.022-.193.065-.3.097a15.701 15.701 0 0 0-1.86-3.497c-2.737-3.849-7.185-13.172-7.185-13.172l-2.48.738-.033.01-.01.011z" fill="#5a6a96"/><path d="M308.708 229.003s-6.113.52-7.275 0a4.626 4.626 0 0 1-2.995-3.729c-.153-2.078.275-2.72-.52-3.882-.794-1.161-1.497-.764-1.62.336-.122 1.1-.17 3.088-.458 3.234-.39.197-.853-1.202-.703-3.325a13.14 13.14 0 0 1 .887-4.493c.55-1.223.848-1.154 1.344-1.376a3.795 3.795 0 0 1-2.17-1.94c-1.224-1.91-.55-4.888 2.69-4.875 5.66.02 11.676 1.13 11.798 5.318 0 0 1.986-.306 2.048 3.515s-2.384 8.435-2.568 9.627.153 1.315-.458 1.59z" fill="#023d5f"/><path d="M291.718 273.916c-.225 1.913-1.903 4.875-.76 5.292a21.834 21.834 0 0 0 4.62-.139h.064c.043 0 .075-.01.107-.01 2.031-.172 4.351-.396 6.297-.546 7.773-.331 11.74 1.219 12.52.78.374-.224.385-.898.267-1.593a18.1 18.1 0 0 1-.128-5.153c.193-1.443.46-3.165.834-5.132 1.283-6.81 3.796-17.214 4.17-23.468.599-9.805-9.9-8.875-9.9-8.875-13.365-.834-19.641 3.016-20.368 8.757a21.4 21.4 0 0 0-.118 1.304c-.342 5.924 1.465 15.482 2.32 22.624a35.961 35.961 0 0 1 .075 6.159z" fill="#2a4175"/><path d="M291.718 273.916c-.225 1.913-1.903 4.875-.76 5.292a21.834 21.834 0 0 0 4.62-.139c-2.064.15-2.449-1.433-1.99-2.491a15.117 15.117 0 0 0 1.327-6.33c-.096-2.844-1.166-9.259-1.796-15.32a49.34 49.34 0 0 1-.011-10.629c-.321.642-1.24 1.54-3.828 2.139-.053 5.955 1.572 14.68 2.363 21.32a35.961 35.961 0 0 1 .075 6.158z" fill="#2a4175"/><path d="M127.342 150.525l14.909-35.575-11.077 2.242-.174.028-22.147 4.483-.375.07-22.313 4.516-.375.069-10.876 2.202zm3.727-26.499l-7.066 16.87-25.085-10.511z" fill="#8fd8d3"/><path d="M80.975 127.333l.24-.049.327 1.614a.123.123 0 1 1-.24.048zm.587-.119l.174-.035.16.793a.088.088 0 0 1-.173.035zm.547-.111l.24-.048.327 1.613a.123.123 0 1 1-.24.049zm.587-.119l.173-.035.16.794a.088.088 0 0 1-.173.035zm.547-.11l.24-.049.326 1.614a.123.123 0 1 1-.24.048zm.587-.119l.173-.035.16.793a.088.088 0 0 1-.173.035zm.546-.111l.24-.048.327 1.613a.123.123 0 1 1-.24.049zm.594-.12l.167-.034.16.794a.09.09 0 0 1-.069.104.084.084 0 0 1-.098-.07zm.54-.109l.247-.05.326 1.614a.134.134 0 0 1-.1.152.128.128 0 0 1-.146-.103zm.594-.12l.166-.034.161.793a.09.09 0 0 1-.07.105.084.084 0 0 1-.097-.07zm.541-.103l.247-.05.325 1.607a.13.13 0 0 1-.1.152.128.128 0 0 1-.147-.102zm.594-.12l.166-.034.16.787a.084.084 0 0 1-.063.103.09.09 0 0 1-.104-.07zm.54-.11l.246-.05.326 1.608a.128.128 0 0 1-.095.15.13.13 0 0 1-.152-.1zm.593-.12l.167-.034.16.787a.084.084 0 0 1-.063.103.09.09 0 0 1-.105-.069zm.54-.109l.247-.05.325 1.607a.128.128 0 0 1-.094.151.134.134 0 0 1-.152-.1zm.594-.12l.173-.035.16.787a.088.088 0 0 1-.174.035zm.547-.111l.24-.049.325 1.608a.123.123 0 1 1-.24.048zm.587-.119l.173-.035.16.787a.088.088 0 0 1-.174.035zm.546-.11l.24-.049.326 1.607a.123.123 0 1 1-.24.049zm.587-.119l.174-.035.159.787a.088.088 0 1 1-.173.035zm.547-.111l.24-.049.325 1.608a.123.123 0 1 1-.24.048zm.587-.119l.173-.035.16.787a.088.088 0 0 1-.174.035zm.547-.11l.24-.049.325 1.607a.123.123 0 1 1-.24.049zm.586-.119l.174-.035.16.787a.088.088 0 1 1-.174.035zm.547-.111l.24-.048.326 1.607a.123.123 0 1 1-.24.048zm.593-.12l.168-.034.159.787a.09.09 0 0 1-.07.104.084.084 0 0 1-.097-.07zm.541-.109l.247-.05.325 1.607a.134.134 0 0 1-.1.152.128.128 0 0 1-.147-.102zm.594-.121l.166-.033.16.787a.09.09 0 0 1-.07.104.084.084 0 0 1-.097-.07zm.54-.109l.246-.05.326 1.607a.134.134 0 0 1-.101.153.128.128 0 0 1-.146-.103zm.593-.12l.167-.034.16.787a.084.084 0 0 1-.063.103.09.09 0 0 1-.105-.07zm.54-.109l.247-.05.325 1.607a.128.128 0 0 1-.094.15.13.13 0 0 1-.152-.1zm.594-.121l.167-.033.159.787a.084.084 0 0 1-.063.103.09.09 0 0 1-.104-.07zm.54-.109l.247-.05.325 1.607a.128.128 0 0 1-.094.151.134.134 0 0 1-.153-.1zm.594-.12l.173-.035.16.787a.088.088 0 1 1-.174.035zm.546-.111l.24-.048.326 1.607a.123.123 0 1 1-.24.048zm.588-.118l.173-.036.159.787a.088.088 0 0 1-.173.035zm.546-.111l.24-.049.325 1.607a.123.123 0 1 1-.24.049zm.587-.119l.173-.035.16.787a.088.088 0 1 1-.174.035zm.547-.111l.24-.048.325 1.607a.123.123 0 1 1-.24.048zm.587-.118l.173-.036.16.787a.088.088 0 0 1-.174.035zm.546-.111l.24-.049.326 1.607a.123.123 0 1 1-.24.049zm.587-.119l.174-.035.159.787a.088.088 0 1 1-.173.035zm.547-.111l.24-.048.325 1.607a.123.123 0 1 1-.24.048zm.593-.12l.167-.034.16.787a.09.09 0 0 1-.07.105.084.084 0 0 1-.097-.07zm.54-.109l.248-.05.325 1.607a.134.134 0 0 1-.101.152.128.128 0 0 1-.146-.102zm.594-.12l.167-.034.16.787a.09.09 0 0 1-.07.104.084.084 0 0 1-.097-.07zm.54-.11l.247-.05.325 1.608a.134.134 0 0 1-.1.152.128.128 0 0 1-.146-.103zm.594-.12l.167-.033.159.786a.084.084 0 0 1-.062.103.09.09 0 0 1-.105-.069zm.54-.109l.247-.05.325 1.607a.126.126 0 1 1-.247.05zm.594-.12l.166-.034.16.787a.084.084 0 0 1-.063.103.09.09 0 0 1-.104-.07zm.541-.103l.247-.05.324 1.6a.128.128 0 0 1-.095.152.134.134 0 0 1-.152-.101zm.594-.12l.173-.035.158.78a.088.088 0 1 1-.173.035zm.546-.111l.24-.048.324 1.6a.123.123 0 1 1-.24.049zm.587-.119l.174-.035.158.78a.088.088 0 1 1-.174.036zm.547-.11l.24-.049.324 1.6a.123.123 0 1 1-.24.05zm.587-.119l.173-.035.158.78a.088.088 0 0 1-.173.035zm.546-.111l.24-.048.325 1.6a.123.123 0 1 1-.24.049zm.588-.119l.173-.035.158.78a.088.088 0 0 1-.173.036zm.546-.11l.24-.049.325 1.6a.123.123 0 1 1-.24.05zm.587-.119l.174-.035.158.78a.088.088 0 1 1-.174.035zm.547-.111l.24-.048.324 1.6a.123.123 0 1 1-.24.049zm.594-.12l.166-.034.158.78a.09.09 0 0 1-.069.105.084.084 0 0 1-.097-.07zm.54-.109l.247-.05.324 1.6a.134.134 0 0 1-.102.153.128.128 0 0 1-.145-.103zm.593-.12l.167-.034.158.78a.09.09 0 0 1-.07.104.084.084 0 0 1-.097-.07zm.54-.11l.247-.05.324 1.6a.134.134 0 0 1-.1.153.128.128 0 0 1-.147-.102zm.594-.12l.167-.034.158.78a.084.084 0 0 1-.063.104.09.09 0 0 1-.104-.07zm.541-.109l.246-.05.324 1.6a.128.128 0 0 1-.095.151.13.13 0 0 1-.152-.1zm.593-.12l.166-.034.158.78a.084.084 0 0 1-.062.103.09.09 0 0 1-.104-.069zm.54-.109l.247-.05.323 1.6a.128.128 0 0 1-.094.15.134.134 0 0 1-.152-.1zm.593-.12l.174-.036.158.78a.088.088 0 0 1-.174.035zm.547-.111l.24-.05.324 1.601a.123.123 0 1 1-.24.049zm.587-.119l.173-.035.158.78a.089.089 0 0 1-.173.035zm.547-.11l.24-.05.324 1.6a.123.123 0 1 1-.24.05zm.587-.12l.173-.035.158.78a.088.088 0 1 1-.173.035zm.546-.11l.24-.049.325 1.6a.123.123 0 1 1-.24.049zm.587-.12l.174-.034.158.78a.088.088 0 0 1-.174.035zm.547-.11l.24-.049.324 1.601a.123.123 0 1 1-.24.048zm.587-.119l.173-.035.158.78a.088.088 0 1 1-.173.035zm.547-.111l.24-.048.324 1.6a.123.123 0 1 1-.24.05zm.593-.12l.167-.033.158.78a.09.09 0 0 1-.07.104.084.084 0 0 1-.097-.07zm.54-.109l.247-.05.324 1.6a.134.134 0 0 1-.1.153.128.128 0 0 1-.147-.102zm.594-.121l.167-.033.158.78a.09.09 0 0 1-.07.105.084.084 0 0 1-.097-.07zm.54-.108l.247-.05.324 1.6a.134.134 0 0 1-.101.152.128.128 0 0 1-.146-.102zm.594-.121l.166-.033.158.78a.084.084 0 0 1-.062.103.09.09 0 0 1-.104-.07zm.54-.109l.247-.05.324 1.6a.126.126 0 1 1-.247.05zm.593-.12l.167-.034.158.78a.084.084 0 0 1-.063.103.09.09 0 0 1-.104-.069zm.54-.109l.247-.05.324 1.6a.128.128 0 0 1-.094.151.134.134 0 0 1-.153-.1zm.594-.121l.173-.035.158.78a.088.088 0 1 1-.173.036zm.547-.11l.24-.049.324 1.6a.123.123 0 1 1-.24.05zm.587-.119l.174-.028.157.773a.088.088 0 0 1-.173.035zm.548-.104l.24-.049.323 1.594a.123.123 0 1 1-.24.049zm.587-.119l.173-.035.157.774a.088.088 0 0 1-.174.035zm.547-.11l.24-.05.322 1.595a.123.123 0 1 1-.24.048zm.586-.12l.174-.034.156.773a.088.088 0 0 1-.173.035zm.547-.11l.24-.049.323 1.594a.123.123 0 1 1-.24.049zm.587-.119l.173-.035.157.774a.088.088 0 0 1-.173.035zm.547-.111l.24-.048.323 1.594a.123.123 0 1 1-.24.048zm.593-.12l.167-.033.157.773a.09.09 0 0 1-.07.104.085.085 0 0 1-.097-.07z" style="mix-blend-mode:screen" opacity=".5" fill="#ffb27e"/><path d="M79.879 125.578c-1.126 8.657 2.433 17.395 6.027 14.984 5.637-3.782 14.002-16.188 14.813-16.224a22.487 22.487 0 0 0 2.27.288 12.135 12.135 0 0 0 2.447-.368c.139-.033.305-.106.306-.248a.286.286 0 0 0-.14-.212 1.71 1.71 0 0 0-.993-.25c-.286-.005-.653-.044-.731-.32a.436.436 0 0 1 .182-.443 1.281 1.281 0 0 1 .469-.189c.888-.228 1.997-.434 2.885-.662-.54-.167-1.31-.34-1.86-.472a7.123 7.123 0 0 0-1.26-.215 16.832 16.832 0 0 0-2.625.1 8.05 8.05 0 0 0-2.788 1.054 11.485 11.485 0 0 0-1.872 1.263c-1.52 1.19-7.3 7.96-8.559 8.898m25.453 22.118a39.747 39.747 0 0 0-2.653 9.307c-.608 4.227 1.747 10.97 1.482 15.884a16.13 16.13 0 0 1-.579 3.944c-.457.845-1.465 1.776-1.564 2.902a1.737 1.737 0 0 0 1.12 1.692c.789.36 1.307-.056 1.59-.032 1.64.14 1.95 1.321 4.768 1.68a4.494 4.494 0 0 0 2.945-.807.6.6 0 0 0 .107-.836c-.17-.243-2.254-.86-3.199-1.405a5.785 5.785 0 0 1-2.044-2.514 24.152 24.152 0 0 1 .423-4.46c1.212-7.92 2.713-19.067 3.519-23.689" fill="#db856e"/><path d="M121.234 189.422c.2-.341.245-.85.052-.968a16.26 16.26 0 0 0-1.765-.955c-.55-.223-1.417-.409-1.11-.26s-.245.753-.756.739c-1.764-.05-3.08-1.13-4.088-1.34a2.697 2.697 0 0 1-1.867-2.147 6.788 6.788 0 0 0-1.298 1.892 3.206 3.206 0 0 0-.193 1.456 3.211 3.211 0 0 1 .182 1.376 2.797 2.797 0 0 0 1.047.328 4.3 4.3 0 0 0 1.122-.019l.111-.874a4.294 4.294 0 0 1 .897.057 2.975 2.975 0 0 1 1.371.691c.216.211.43.546.703.653a5.955 5.955 0 0 0 2.265.465c1.891.048 2.986-.51 3.327-1.094z" fill="#023d5f"/><path d="M89.86 144.156l-12.77 7.303s.807 4.797 6.588 6.033c3.354.717 8.624-.24 10.015-.17s23.423.864 23.423.864 2.189.479 2.58-1.243c.615-2.7.007-3.55-1.809-4.753-3.061-2.027-14.754-5.871-28.027-8.034z" fill="#db856e"/><path d="M113.655 156.39a39.746 39.746 0 0 0 .02 9.678c.582 4.231 4.937 11.3 6.04 16.096a16.133 16.133 0 0 1 .531 3.95c-.206.938-.918 2.112-.702 3.221a1.738 1.738 0 0 0 1.544 1.317c.857.128 1.24-.415 1.519-.47 1.616-.317 2.238.732 5.046.299a4.494 4.494 0 0 0 2.608-1.588.6.6 0 0 0-.128-.833c-.23-.187-2.403-.206-3.462-.468a5.787 5.787 0 0 1-2.659-1.852 24.153 24.153 0 0 1-.825-4.404c-1.02-7.946-3.028-21.333-3.53-25.998" fill="#ed9c80"/><path d="M130.527 189.014c.098-.384 0-.885-.217-.946a16.252 16.252 0 0 0-1.96-.43c-.59-.063-1.475-.002-1.14.056s-.027.792-.522.919c-1.709.439-3.272-.236-4.298-.16a2.697 2.697 0 0 1-2.388-1.547 6.79 6.79 0 0 0-.725 2.177 3.206 3.206 0 0 0 .216 1.452 3.21 3.21 0 0 1 .555 1.272 2.798 2.798 0 0 0 1.097.026 4.298 4.298 0 0 0 1.073-.327l-.134-.87a4.294 4.294 0 0 1 .878-.194 2.975 2.975 0 0 1 1.508.286 2.69 2.69 0 0 0 .856.434 5.955 5.955 0 0 0 2.305-.179c1.831-.476 2.73-1.314 2.896-1.97z" fill="#023d5f"/><path d="M90.125 145.06l-12.771 7.303s.51 4.648 6.291 5.884c3.354.717 8.922-.09 10.312-.02s23.424.864 23.424.864 2.154.462 2.263-1.3c.145-2.354.323-3.494-1.492-4.696-3.061-2.028-14.754-5.872-28.027-8.035z" fill="#ed9c80"/><path d="M79.822 141.005s-3.998 7.783-2.976 11.098 2.973 6.45 8.46 6.491 19.238.041 19.238.041a20.635 20.635 0 0 1 1.685-5.82 17.015 17.015 0 0 1 3.161-3.984s-13.947-4.298-14.915-5.222a12.385 12.385 0 0 1-1.914-2.976" fill="#023d5f"/><path d="M82.152 115.815a27.3 27.3 0 0 0-2.904 11.02 33.613 33.613 0 0 0 5.527.79" fill="#c5e6ef"/><path d="M92.8 112.894c.733.243.459 1.988 1.191 2.23.531.177 1.57-.057 2.058.217 2.58 1.456 1.919 4.36 2.23 7.96 1.093 2.762 1.384 5.265.513 6.808-1.08 1.915-2.224 2.455-3.55 4.042-.993 1.186-1.318 3.626-1.521 6.247-.035.451.34 1.242.23 1.681-.208.843-1.487 1.104-2.916 1.131-3.283.063-8.261-1.132-9.726-1.077-1.38.05-2.681-.619-2.547-1.433.094-.568.664-.802.89-1.902.495-2.422.875-8.477 1.261-10.529.988-5.257 1.711-9.167 3.866-14.012" fill="#c5e6ef"/><path d="M100.259 125.498a24.577 24.577 0 0 0-2.979-3.902l-2.805 1.262c1.32 2.53 1.56 5.51 2.165 8.276a6.545 6.545 0 0 0 1.619-.159c.272-.445.17-.223.533-.866a11.346 11.346 0 0 0 1.467-4.611z" fill="#afd4dd"/><path d="M102.174 105.793a13.997 13.997 0 0 0 .478-3.63c-.081-2.085-.345-5.106-3.81-6.347-3.467-1.24-7.29-.496-8.425 2.003s-.871 6.284-1.037 8.306a12.48 12.48 0 0 1-1.65 4.445l7.464 3.212a14.146 14.146 0 0 1 1.721-2.968c.502-.317.677.945 2.34.805.705-.06 1.458-1.327 2.029-2.886l.054-.153a7.81 7.81 0 0 0 .887-.077c.515-.153.474-.38.359-.708a8.46 8.46 0 0 1-.41-2.002zm12.126 40.969a3.997 3.997 0 0 0 2.438 2.146 1.33 1.33 0 0 0 .861-.162c.43.114 1.724.048 1.129-.623a3.67 3.67 0 0 0 2.845.145c.34-.072.263-.47-.52-.552a3.817 3.817 0 0 1-2.656-1.587c.136-.144.297.054.732.052.482-.002.698-.253.68-.46-.014-.157-.608-.246-.744-.308l-1.558-.7a2.717 2.717 0 0 0-1.567-.301c-.104.01-1.105.234-.795.56" fill="#ed9c80"/><path d="M96.855 126.93s3.917 10.557 4.598 11.42c2.684 3.397 13.234 8.747 13.234 8.747a2.067 2.067 0 0 0 1.31-2.303c-3.245-1.427-9.238-7.997-10.548-8.8-.85-.52-4.6-13.428-4.6-13.428" fill="#ed9c80"/><path d="M98.463 115.192c-2.836-1.084-5.548-1.09-7.72-3.261-2.204 1.695 2.661 11.499 3.864 11.762 1.23.269 2.831 5.68 3.132 6.416 3.927-.104 5.363-2.245 5.363-2.245-1.603-4.926-1.89-11.622-4.64-12.672z" fill="#c5e6ef"/><path d="M96.188 115.46c-.195-.738-.752-1.324-.877-2.078a3.391 3.391 0 0 1 .417-2.235 4.093 4.093 0 0 1 .971-.916c1.56-1.23 2.104-2.246 1.58-4.087a5.006 5.006 0 0 1-.265-1.847c.057-.564.172-1.153.778-1.224.422-.05.694.053.842.41.104.248-.1 2.032.49 1.022a4.13 4.13 0 0 0 1.044-3.272c-.004-.264-.094-1.34.07-1.5a4.253 4.253 0 0 1 1.457 3 2.178 2.178 0 0 0 1-1.879 4.977 4.977 0 0 0-.41-2.234 6.556 6.556 0 0 0-4.007-3.956 9.005 9.005 0 0 0-3.677-.975c-1.277.034-2.859.414-3.228 1.37-1.769-.456-2.78 1.09-3.198 1.646a9.002 9.002 0 0 0-1.366 2.634c-.452 1.397-.557 2.885-.914 4.31a6.28 6.28 0 0 1-1.685 3.172c-.862.78-2.074.851-3.01 1.566a4.712 4.712 0 0 0-1.788 3.916c.064 1.497.834 3.11-.07 4.484-.294.446-.706.803-.995 1.253a3.407 3.407 0 0 0 .067 3.517 6.243 6.243 0 0 0 3.05 2.605 8.946 8.946 0 0 0 3.297.453c2.15-.118 3.959.005 6.233-1.939 1.288-1.1.464-1.73 1.7-2.897.693-.654 1.677-1.003 2.185-1.853a3.31 3.31 0 0 0 .33-2.38 2.163 2.163 0 0 0-.02-.087z" fill="#023d5f"/><path fill="#c5e6ef" opacity=".75" d="M162.444 29.872l-19.193 19.876.213-6.85 18.98-13.026z"/><path fill="#c5e6ef" d="M133.484 39.543l20.149 8.293 8.811-17.964-28.96 9.671z"/><path fill="#94dee0" d="M162.444 29.872l-21.7 12.659 2.507 7.217 1.704-5.484 17.489-14.392z"/><path fill="none" stroke="#94dee0" stroke-miterlimit="10" d="M269.735 62.582l38.617 38.618"/><path d="M310.146 79.227l-19.992 3.107 15.395-16.62a4.536 4.536 0 1 0-.04-.04l.029.03-16.152 15.862s2.356-13.813 3.153-20.673c5-2.333 18.814-9.932 22.671-12.82.797-.588 1.259-.935 1.259-.935s-2.954-2.616 8.018 8.356c-.306.364-.635.774-.982 1.212-5.237 6.635-13.36 22.521-13.36 22.521z" fill="#c5e6ef"/><path d="M331.762 55.403l-3.355 3.355a1.606 1.606 0 0 1-2.275 0l-13.49-13.489a1.6 1.6 0 0 1-.075-2.188.505.505 0 0 1 .075-.087l3.355-3.355a1.607 1.607 0 0 1 2.275 0l13.49 13.49a1.606 1.606 0 0 1 0 2.274z" fill="#94dee0"/><path d="M331.762 55.403l-3.355 3.355a1.606 1.606 0 0 1-2.275 0l-13.49-13.489a1.6 1.6 0 0 1-.075-2.188c10.464 11.78 14.067 7.622 14.99 5.843l4.205 4.204a1.606 1.606 0 0 1 0 2.275z" fill="#86d5db"/><path d="M321.56 80.064c-9.469 9.468-23.863 10.425-32.15 2.137s-7.332-22.681 2.137-32.15" fill="none" stroke="#94dee0" stroke-miterlimit="10"/><path d="M271.03 63.878a1.832 1.832 0 1 1 0-2.591 1.832 1.832 0 0 1 0 2.591zm21.792-12.374a1.832 1.832 0 1 1 0-2.591 1.832 1.832 0 0 1 0 2.59zm29.741 29.85a1.832 1.832 0 1 1 0-2.59 1.832 1.832 0 0 1 0 2.59zm-12.916 21.14a1.832 1.832 0 1 1 0-2.591 1.832 1.832 0 0 1 0 2.59z" fill="#94dee0"/><path fill="none" stroke="#ffc840" stroke-linecap="round" stroke-linejoin="round" stroke-width="2.986" d="M228.76 1.493v40.708m50.577-29.042l-21.388 34.637m-79.766-34.637l21.388 34.637"/><path fill="none" stroke="#94dee0" stroke-miterlimit="10" d="M39.841 175.436l7.74-2.92 2.92 7.74-7.74 2.92z"/><path d="M52.496 170.745a4.68 4.68 0 1 1-6.031-2.727 4.68 4.68 0 0 1 6.031 2.727z" fill="none" stroke="#94dee0" stroke-miterlimit="10"/><path d="M343.117 100.314l.173-1.747-2.374-.988-1.117 1.353-1.488-.62 5.02-5.582 1.69.703-.416 7.5zm.326-3.042q.222-2.38.254-2.69c.023-.207.043-.37.065-.486q-.387.508-2.016 2.469z" fill="#94dee0"/><path fill="none" stroke="#94dee0" stroke-miterlimit="10" stroke-width=".5" d="M349.645 95.68l-2.49 5.982m-1.45-.604l2.9 1.207m-.409-7.189l2.899 1.207m-3.199-4.069l-5.982-2.49m.603-1.45l-1.207 2.9m7.189-.409l-1.207 2.899"/><path d="M61.232 256.593l12.677-10.999a6.133 6.133 0 0 1 8.651.613l11 12.677a6.133 6.133 0 0 1-.614 8.651L80.27 278.534a6.133 6.133 0 0 1-8.65-.613l-11-12.677a6.133 6.133 0 0 1 .613-8.651z" fill="#8fd8d3"/><path d="M70.07 257.996c.49-.425.988-.84 1.465-1.279a.518.518 0 0 1 .693-.093c.783.492 1.556.999 2.341 1.488.797.496 1.606.972 2.404 1.465.572.353 1.133.723 1.702 1.08.556.348 1.118.687 1.675 1.033.583.362 1.164.728 1.746 1.092.532.332 1.06.669 1.595.995.737.45 1.482.886 2.21 1.351.05.032.033.306-.04.376-.404.384-.835.74-1.256 1.106l-1.194 1.04a.391.391 0 0 1-.555.027c-.848-.554-1.72-1.073-2.582-1.608a1.869 1.869 0 0 1-.246-.196.529.529 0 0 0-.798-.008q-1.425 1.258-2.868 2.493a.364.364 0 0 0-.094.532q.68 1.387 1.287 2.808c.324.761.3.77-.337 1.322-.604.523-1.213 1.04-1.808 1.575-.247.221-.414.204-.547-.1-.27-.615-.535-1.232-.809-1.846-.285-.64-.58-1.276-.867-1.915-.262-.586-.52-1.174-.78-1.761l-1.196-2.7c-.38-.861-.758-1.723-1.14-2.583q-.592-1.33-1.19-2.658c-.147-.327-.301-.65-.442-.979a.624.624 0 0 1 .224-.85c.493-.37.94-.8 1.408-1.206zm1.804 2.253c-.017.085-.045.135-.03.165.287.591.581 1.18.873 1.768.378.763.753 1.528 1.135 2.289.215.427.442.849.662 1.274.123.239.273.244.465.077.694-.605 1.392-1.205 2.086-1.809.181-.157.184-.28-.053-.407-.354-.19-.7-.397-1.035-.62-1.104-.743-2.2-1.498-3.302-2.243-.253-.17-.52-.321-.8-.494zm14.276-2.631c1.156 1.332 2.305 2.669 3.472 3.99.241.274.262.445-.038.692a59.301 59.301 0 0 0-2.049 1.777c-.277.25-.456.225-.701-.059q-3.44-3.988-6.9-7.959c-.426-.491-.42-.508.061-.925.626-.543 1.267-1.07 1.873-1.635.306-.285.495-.269.765.049 1.161 1.366 2.344 2.714 3.52 4.068zm-8.555-7.065a1.81 1.81 0 0 1 2.68.135 1.733 1.733 0 0 1-.294 2.628 1.783 1.783 0 0 1-2.68-.13 1.81 1.81 0 0 1 .294-2.633z" fill="#fff"/><path d="M120.142 94.608l1.199-.203-.203-1.198 1.19-.202.876 5.175 2.251-3.224-2.255.381-.204-1.21.096-.016 3.33-.562a.209.209 0 0 0 .15-.096c.315-.446.632-.89.947-1.335a.775.775 0 0 0 .045-.079c.201.14.392.27.604.417a.556.556 0 0 0-.073.07c-.317.443-.632.889-.95 1.332a.182.182 0 0 0-.033.15q.285 1.67.566 3.34l.018.104-1.205.204-.386-2.284-2.31 3.191.017.02 5.146-.87.201 1.19-1.18.2.206 1.22-1.208.204-.206-1.215-4.47.756-.753-4.453-1.2.203c-.07-.403-.136-.8-.206-1.21zm281.263 90.7l.634-1.46-1.46-.635.63-1.45 6.306 2.74-1.93-4.777-1.193 2.747-1.474-.64.051-.118 1.765-4.057a.274.274 0 0 0 .002-.233c-.265-.664-.526-1.33-.789-1.994a1.066 1.066 0 0 0-.055-.105l.89-.365a.72.72 0 0 0 .024.13c.26.665.524 1.33.784 1.995a.239.239 0 0 0 .141.144q2.036.881 4.07 1.766l.127.056-.638 1.468-2.783-1.21 1.852 4.817.033-.004 2.724-6.27 1.45.63-.625 1.439 1.488.646-.64 1.472-1.48-.643-2.367 5.446-5.426-2.358-.636 1.464-1.475-.64z" fill="#94dee0"/></g></svg>