<svg width="890" height="297" xmlns="http://www.w3.org/2000/svg" xmlns:xlink="http://www.w3.org/1999/xlink" viewBox="0 0 3963.648 1321.704"><path fill="#D1D9E8" d="M3961.249 1009.603h-938.8c-1.3 0-2.4-1.1-2.4-2.4v-549.5c0-1.3 1.1-2.4 2.4-2.4h938.8c1.3 0 2.4 1.1 2.4 2.4v549.5c-.1 1.3-1.2 2.4-2.4 2.4z"/><path fill="#FFF" d="M3047.349 1009.103l155.9-175.9 40.8 48.6 103.2-168.9 67 157.6 155.2-256 102.4 241.8 152.6-334.5v487.5z"/><path fill="#FFF" d="M3847.349 551.303l-29.8-52.9-35.6 50.2z"/><path fill="#A2B2CC" d="M3062.749 957.404c-2 0-4-.5-5.8-1.5-5.8-3.2-7.9-10.5-4.6-16.3l83-148.8c2.4-4.2 7-6.6 11.9-6.1 4.8.6 8.8 4 10.1 8.6l9.2 32.6 82.1-114.4c2.3-3.2 5.7-5 10.1-5 4 .1 7.7 2.2 9.8 5.6l88.4 140.2 119.3-225.9c2.2-4.1 6.5-6.6 11.1-6.4 4.6.2 8.7 3 10.5 7.3l84 195.6 173.6-315.4c3.2-5.8 10.5-7.9 16.3-4.7s7.9 10.5 4.7 16.3l-185.4 336.9c-2.2 4-6.2 6.6-11.1 6.2-4.6-.2-8.6-3-10.4-7.3l-83.8-195.1-117.2 222.1c-2 3.8-5.9 6.2-10.2 6.4-4.3.3-8.3-2-10.6-5.6l-90-142.7-86.2 120.1c-2.7 3.7-7.2 5.6-11.8 4.8-4.5-.8-8.2-4.1-9.5-8.6l-8.1-28.6-68.8 123.5c-2.4 4-6.5 6.2-10.6 6.2z" opacity=".28"/><path fill="#98D8C9" d="M3441.249 581.204h62.6v6h-62.6zm-126.2 100.5h62.6v6h-62.6zm-92.2 8.599h62.6v6h-62.6zm321.5-119.599h62.6v6h-62.6zm198-70.601h62.6v6h-62.6zm110.6 82.301h62.6v6h-62.6zm0 35.699h62.6v6h-62.6zm0 35.801h62.6v6h-62.6zm0 35.699h62.6v6h-62.6zm0 35.7h62.6v6h-62.6zm0 35.701h62.6v6h-62.6zm0 35.799h62.6v6h-62.6zm0 35.701h62.6v6h-62.6zm0 35.7h62.6v6h-62.6zm0 35.8h62.6v6h-62.6z" opacity=".57"/><linearGradient id="a" gradientUnits="userSpaceOnUse" x1="23701.533" y1="-8739.164" x2="24341.295" y2="-8739.164" gradientTransform="scale(-1 1) rotate(13.244 -29705.855 -109590.38)"><stop offset=".189" stop-color="#ffd234"/><stop offset=".986" stop-color="#ffb000"/></linearGradient><path fill="url(#a)" d="M795.149 691.404s-185.1-259.5-317.5-148.4c-90.3 75.7 18.7 269.9-6.4 296.5-25 26.5-145.7-90.1-252.1.1-106.4 90.2 137.4 376.7 137.4 376.7l311.2.7 127.4-525.6z"/><linearGradient id="b" gradientUnits="userSpaceOnUse" x1="-1032.081" y1="2936.104" x2="-809.786" y2="2936.104" gradientTransform="rotate(37.786 2858.548 3554.6)"><stop offset=".189" stop-color="#ffd234"/><stop offset=".986" stop-color="#ffb000"/></linearGradient><path fill="url(#b)" d="M337.649 819.204s-72.6-156-134.8-154.3c-61.9 1.7-57.6 62.7-16.4 97.6 40.4 34.2 151.2 56.7 151.2 56.7z"/><linearGradient id="c" gradientUnits="userSpaceOnUse" x1="6544.837" y1="10876.6" x2="6746.746" y2="10876.6" gradientTransform="matrix(.3417 1.3999 -.9715 .2371 8625.196 -11199.163)"><stop offset=".189" stop-color="#ffd234"/><stop offset=".986" stop-color="#ffb000"/></linearGradient><path fill="url(#c)" d="M348.149 828.303s46.5-208.1-8.2-266c-54.6-57.7-84.9 10.1-68.7 86.3 15.8 74.4 76.9 179.7 76.9 179.7z"/><path fill="#FFF" d="M484.149 1219.504c-1.6 0-2.9-1.1-3.2-2.7-.3-1.8 1-3.4 2.7-3.6 11.7-1.7 43.2-9.2 48.6-22.7 1.8-4.6.5-9.6-4.1-15.4-13.9-17.6-68.7 6.3-88.7 16.9-1.4.7-3.1.4-4.1-.9-1-1.3-.8-3 .3-4.2 1.1-1.1 106.2-109.6 140.6-161.5 42-63.4 39.5-109.1 23-130.7-11.1-14.7-29-19.3-48.9-12.8-53.2 17.3-116.6 259.6-117.3 262-.4 1.6-2.1 2.7-3.7 2.3-1.7-.3-2.8-1.9-2.6-3.6.3-1.9 25.2-192.9-31.1-259.3-29.8-35.1-72.9-50.8-102.6-37.3-25.4 11.6-36.2 42.4-29.7 84.5 16.5 106.5 155.5 276.6 156.9 278.3 1.1 1.4.9 3.4-.4 4.5-1.4 1.1-3.4.9-4.5-.4-5.8-7-141.5-173.1-158.3-281.4-7-45.2 5.2-78.5 33.3-91.3 32.7-14.9 78 1.1 110.1 39 43.1 50.8 40.8 167.1 36.3 227.1 20.2-69.6 67.7-216.3 111.5-230.6 22.4-7.3 43.3-1.7 56 15.1 17.7 23.3 21.1 71.9-22.8 138.1-27.6 41.6-99.8 118.8-128.9 149.5 23.8-10.7 65.8-25.8 80.4-7.3 6 7.6 7.7 14.9 5 21.7-7.8 19.7-51.8 26.4-53.6 26.7h-.2z"/><path fill="#FFF" d="M430.049 1227.504c-1.2 0-2.4-.7-2.9-1.9-.5-1.1-11.1-27.8 47.5-149.8 58.3-121.3 105.1-160.9 107.1-162.5 1.4-1.1 3.4-.9 4.5.4 1.1 1.4.9 3.4-.4 4.5-.5.4-47.8 40.5-105.4 160.3-56.4 117.3-47.5 144.2-47.4 144.5.6 1.6-.2 3.5-1.8 4.1-.4.3-.8.4-1.2.4z"/><path fill="#FFF" d="M430.049 1184.904c-.9 0-1.7-.4-2.4-1-1.3-1.4-31-34.4-64.1-112.5-33-77.8-61.7-198.2-62-199.4-.4-1.7.7-3.5 2.4-3.9 1.7-.4 3.5.7 3.9 2.4.3 1.2 28.9 121.1 61.7 198.4 32.6 76.9 62.6 110.4 62.9 110.7 1.2 1.3 1.1 3.3-.2 4.5-.6.6-1.4.8-2.2.8z"/><path fill="#FFF" d="M330.149 968.404c-.8 0-1.7-.3-2.3-1l-56.5-59.1c-1.2-1.3-1.2-3.3.1-4.5 1.3-1.2 3.3-1.2 4.5.1l56.5 59.1c1.2 1.3 1.2 3.3-.1 4.5-.6.6-1.4.9-2.2.9zm26.2 79.1c-.6 0-1.2-.2-1.8-.5l-58.5-38.4c-1.5-1-1.9-3-.9-4.4 1-1.5 3-1.9 4.4-.9l58.5 38.4c1.5 1 1.9 3 .9 4.4-.6.9-1.6 1.4-2.6 1.4zm33.5 75.2c-.5 0-1-.1-1.4-.3l-45.5-23.1c-1.6-.8-2.2-2.7-1.4-4.3.8-1.6 2.7-2.2 4.3-1.4l45.5 23.1c1.6.8 2.2 2.7 1.4 4.3-.6 1-1.7 1.7-2.9 1.7zm26.4 44.099c-.2 0-.4 0-.7-.1l-26.4-5.5c-1.7-.4-2.9-2.1-2.5-3.8s2-2.8 3.8-2.5l26.4 5.5c1.7.4 2.9 2.1 2.5 3.8-.3 1.5-1.6 2.6-3.1 2.6z"/><linearGradient id="d" gradientUnits="userSpaceOnUse" x1="1414.498" y1="-6435.347" x2="1536.249" y2="-6435.347" gradientTransform="translate(0 6920)"><stop offset=".189" stop-color="#ffd234"/><stop offset=".986" stop-color="#ffb000"/></linearGradient><path fill="url(#d)" d="M1536.149 574.803c-4.4 0-107.8-1.5-118.8-42.5-6.2-23-.4-133.1-.1-137.8l10.5.5c-2.1 39.1-4.8 117.7-.1 135.1 7.5 28.1 81 34.9 108.6 35.2l-.1 9.5z"/><linearGradient id="e" gradientUnits="userSpaceOnUse" x1="1340.449" y1="-6701.596" x2="1516.849" y2="-6701.596" gradientTransform="translate(0 6920)"><stop offset=".189" stop-color="#ffd234"/><stop offset=".986" stop-color="#ffb000"/></linearGradient><path fill="url(#e)" d="M1516.849 196.603c0-44.4-39.5-66-88.2-66s-88.2 21.6-88.2 66c0 3.4.3 6.8.7 10.1v.1c.5 8.2 3.4 16.1 7.7 24 1.4 2.7 3 5.3 4.7 7.8 8 12.6 18.4 25.1 25.8 38.3 13.7 24.1 10.5 29.3 10.5 29.3h77.9s-3.5-5.2 10.2-29.3 36.8-45.3 38.1-69.5v-.1c.6-3.5.8-7.1.8-10.7z"/><linearGradient id="f" gradientUnits="userSpaceOnUse" x1="1331.162" y1="-6661.189" x2="1475.213" y2="-6560.196" gradientTransform="translate(0 6920)"><stop offset=".169" stop-color="#e0f3f4"/><stop offset=".791" stop-color="#4d98a0"/></linearGradient><path fill="url(#f)" d="M1468.049 299.504s-15.3 6.8-39.1 6.8-39.1-6.8-39.1-6.8-12.2 8.6-9.1 12.1c3.1 3.4 4.7 2.9 4.7 2.9s-2.2 34.3 8.5 43.5c9.9 8.5 32.7 8.1 35.9 8 3 .1 24.3.5 34.2-8 10.7-9.2 8.5-43.5 8.5-43.5s1.6.6 4.7-2.9c3-3.5-9.2-12.1-9.2-12.1z"/><path d="M1403.749 305.704c0-.5-1.6-30.3-5.1-56.7-2.7.4-5.3.4-7.7 0-5.1-1-8.8-4.1-10.9-9-7.6-18-5.4-32.4 1.1-35.5 1.7-.8 6.1-1.9 11.2 4.9 3.9 5.2 7 19.6 9.3 35.7 4-1.2 8.1-3.5 11.8-6.5-1.6-3.1-2.8-6.6-3.2-10.3-1.1-8.7.9-18.9 5.7-20.2 1.1-.3 2.2-.1 3.2.6 4.3 3.1 3.7 17 3.5 19.8-.3 4.3-1.9 7.9-4.8 10.8 1.5 2.2 3.2 4.1 5.1 5.3 1.4.9 3.6 1.9 5.9 1.4l.8 3.1c-2.8.6-5.9-.1-8.7-1.9-2.1-1.4-4.1-3.3-5.7-5.7-4.1 3.2-8.6 5.6-13.1 6.8 3.5 26.1 5 55.3 5.1 57.3l-3.5.1zm-19.9-98.6c-.4 0-.7.1-1.1.2-3.8 1.8-6.8 13.9.6 31.5 1.6 3.9 4.4 6.2 8.4 7 2 .4 4.2.4 6.5 0-2.2-15.8-5.1-29.8-8.8-34.7-1-1.3-3.4-4-5.6-4zm33 4c-1.7.5-4.3 7.9-3.2 16.8.4 2.8 1.2 5.6 2.4 8.1 1.8-2.2 2.8-4.8 3-7.8.5-9.7-.9-16.5-2.2-17.1z"/><path d="M1450.949 305.704l-3.5-.2c.1-2 1.7-31.2 5.1-57.3-4.4-1.3-9-3.6-13.1-6.8-1.6 2.3-3.6 4.3-5.7 5.7-2.9 1.9-5.9 2.5-8.7 1.9l.8-3.1c2.3.5 4.5-.5 5.9-1.4 1.9-1.2 3.7-3.1 5.1-5.3-2.9-2.9-4.5-6.5-4.8-10.8-.2-2.8-.8-16.7 3.5-19.8.9-.7 2-.9 3.2-.6 4.8 1.3 6.8 11.5 5.7 20.2-.5 3.6-1.6 7.199-3.2 10.3 3.7 3 7.8 5.2 11.8 6.5 2.3-16.101 5.3-30.4 9.3-35.7 5.1-6.8 9.5-5.7 11.2-4.9 6.4 3.1 8.6 17.5 1.1 35.5-2.1 4.9-5.8 8-10.9 9-2.4.5-5 .5-7.7.1-3.5 26.4-5 56.2-5.1 56.7zm5.5-59.9c2.3.4 4.5.4 6.5 0 3.9-.8 6.7-3.2 8.4-7 7.4-17.6 4.4-29.7.6-31.5-2.5-1.2-5.5 2.3-6.7 3.8-3.7 4.9-6.6 18.9-8.8 34.7zm-18.7-34.7c-1.2.6-2.7 7.4-2.1 17.1.2 3.1 1.2 5.7 3 7.9 1.2-2.5 2-5.3 2.4-8.2 1.1-8.9-1.5-16.3-3.3-16.8z"/><defs><path id="g" d="M-1312.451-1172.196h1l-1 1z"/></defs><defs><path id="i" d="M-1314.451-1174.196h-1l1-1z"/></defs><clipPath id="h"><use xlink:href="#g" overflow="visible"/></clipPath><clipPath id="j" clip-path="url(#h)"><use xlink:href="#i" overflow="visible"/></clipPath><linearGradient id="k" gradientUnits="userSpaceOnUse" x1="1373.092" y1="-6822.847" x2="1429.994" y2="-6713.857" gradientTransform="translate(0 6920)"><stop offset=".062" stop-color="#fff"/><stop offset="1"/></linearGradient><path clip-path="url(#j)" fill="url(#k)" d="M1373.049 255.603s-48.2-67.2 0-103.9 114.2 3.6 114.2 3.6-61.6-2-90.7 22.5c-29.1 24.3-25.9 62.9-23.5 77.8z"/><linearGradient id="l" gradientUnits="userSpaceOnUse" x1="1373.092" y1="-6822.847" x2="1429.994" y2="-6713.857" gradientTransform="translate(0 6920)"><stop offset=".062" stop-color="#fff"/><stop offset="1" stop-color="#fff"/></linearGradient><path fill="url(#l)" d="M1373.049 255.603s-48.2-67.2 0-103.9 114.2 3.6 114.2 3.6-61.6-2-90.7 22.5c-29.1 24.3-25.9 62.9-23.5 77.8z"/><path d="M1432.149 321.303h-3.6c-26.3-.6-41.4-5.2-42.1-5.4l1.1-3c.1 0 15.3 4.6 41 5.2 25.7.6 43.1-5.1 43.3-5.2l1.2 3c-.6.2-16.6 5.4-40.9 5.4zm-5.3 14.3c-16.1 0-29.9-3.7-30.6-3.9l1-3.1c.2 0 18 4.8 36.1 3.5s27.5-4.7 27.5-4.8l1.3 3c-.4.2-9.9 3.7-28.6 5-2.2.3-4.5.3-6.7.3z"/><path d="M1426.849 342.904c-16.1 0-29.9-3.7-30.6-3.9l1-3.1c.2 0 18 4.8 36.1 3.5s27.5-4.7 27.5-4.8l1.3 3c-.4.2-9.9 3.7-28.6 5-2.2.3-4.5.3-6.7.3z"/><path d="M1426.849 350.204c-16.1 0-29.9-3.7-30.6-3.9l1-3.1c.2 0 18 4.8 36.1 3.5s27.5-4.7 27.5-4.8l1.3 3c-.4.2-9.9 3.7-28.6 5-2.2.3-4.5.3-6.7.3z"/><linearGradient id="m" gradientUnits="userSpaceOnUse" x1="4064.492" y1="-10108.055" x2="4207.826" y2="-10108.055" gradientTransform="rotate(-18.666 34156.031 2761.05)"><stop offset=".189" stop-color="#ffd234"/><stop offset=".986" stop-color="#ffb000"/></linearGradient><path fill="url(#m)" d="M1539.249 208.603c-1.4 0-2.8-.3-4.1-.9-4.3-2.1-6-6.9-3.7-10.8l12.4-21.6c2.2-3.9 7.4-5.4 11.7-3.5l16.9 7.6 9.4-17.2c1-1.9 2.9-3.4 5.1-4 2.2-.7 4.6-.5 6.7.4l20.2 9.1 10-18.4c2.2-4 7.4-5.6 11.8-3.6l28.6 12.9c4.4 2 6.1 6.8 4 10.7-2.2 4-7.4 5.6-11.8 3.6l-20.7-9.3-10 18.4c-2.2 4-7.4 5.6-11.8 3.6l-20.2-9.1-9.4 17.2c-2.2 4-7.4 5.6-11.8 3.6l-17.1-7.7-8.4 14.6c-1.5 2.8-4.6 4.4-7.8 4.4z"/><linearGradient id="n" gradientUnits="userSpaceOnUse" x1="25889.533" y1="-2736.189" x2="26032.781" y2="-2736.189" gradientTransform="scale(-1 1) rotate(-18.663 21223.964 81460.963)"><stop offset=".189" stop-color="#ffd234"/><stop offset=".986" stop-color="#ffb000"/></linearGradient><path fill="url(#n)" d="M1289.249 208.603c-3.2 0-6.2-1.6-7.8-4.3l-8.4-14.6-17.1 7.7c-4.4 2-9.6.3-11.8-3.6l-9.4-17.2-20.2 9.1c-4.4 2-9.6.3-11.8-3.6l-10-18.4-20.7 9.3c-4.4 2-9.6.3-11.8-3.6-2.2-4-.4-8.8 4-10.7l28.6-12.9c4.4-2 9.6-.3 11.8 3.6l10 18.4 20.2-9.1c2.1-.9 4.5-1.1 6.7-.4s4 2.1 5.1 4l9.4 17.2 16.9-7.6c4.3-1.9 9.5-.4 11.7 3.5l12.4 21.6c2.3 3.9.6 8.8-3.7 10.8-1.3.5-2.7.8-4.1.8z"/><linearGradient id="o" gradientUnits="userSpaceOnUse" x1="21152.77" y1="9259.884" x2="21284.906" y2="9259.884" gradientTransform="scale(-1 1) rotate(-78.241 4234.259 18592.531)"><stop offset=".189" stop-color="#ffd234"/><stop offset=".986" stop-color="#ffb000"/></linearGradient><path fill="url(#o)" d="M1445.749 128.704c-1.6 0-3.2-.4-4.6-1.2-4.1-2.3-5.4-7.3-2.8-11l9.6-14-16-9.5c-4.1-2.4-5.2-7.4-2.5-11.1l11.6-16.1-18.8-11.3c-4.1-2.4-5.2-7.4-2.5-11.1l12.3-17.2-19.3-11.5c-4.1-2.4-5.2-7.4-2.5-11.1s8.1-4.7 12.2-2.3l26.7 15.9c4.1 2.399 5.2 7.399 2.5 11.1l-12.3 17.2 18.8 11.3c4.1 2.4 5.2 7.4 2.5 11.1l-11.6 16.1 15.8 9.4c4 2.4 5.2 7.2 2.6 10.9l-14.1 20.7c-1.8 2.3-4.7 3.7-7.6 3.7z"/><linearGradient id="p" gradientUnits="userSpaceOnUse" x1="1513.199" y1="-6826.459" x2="1603.902" y2="-6826.459" gradientTransform="translate(0 6920)"><stop offset=".189" stop-color="#ffd234"/><stop offset=".986" stop-color="#ffb000"/></linearGradient><path fill="url(#p)" d="M1521.949 134.803c-2.3 0-4.5-.8-6.2-2.3-3.4-3.1-3.4-8.2 0-11.3l73.1-66.6c3.4-3.1 9-3.1 12.4 0s3.4 8.2 0 11.3l-73.1 66.6c-1.7 1.5-3.9 2.3-6.2 2.3z"/><linearGradient id="q" gradientUnits="userSpaceOnUse" x1="1280.799" y1="-6825.059" x2="1360.503" y2="-6825.059" gradientTransform="translate(0 6920)"><stop offset=".189" stop-color="#ffd234"/><stop offset=".986" stop-color="#ffb000"/></linearGradient><path fill="url(#q)" d="M1351.649 131.204c-2.3 0-4.5-.8-6.2-2.3l-62.1-56.6c-3.4-3.1-3.4-8.2 0-11.3 3.4-3.1 9-3.1 12.4 0l62.1 56.6c3.4 3.1 3.4 8.2 0 11.3-1.7 1.5-4 2.3-6.2 2.3z"/><path fill="#FFF" d="M931.549-277.697c0 12.7-10.3 23-23 23s-23-10.3-23-23 10.3-23 23-23 23 10.3 23 23z"/><path fill="#FFB68E" d="M1879.549 462.704l-48 64.2-81.2 41.6s-10.8-2.6-20.5 4.7c-9.6 7.4-10.9 23.7-8.4 25.5s6.6-1.8 6.6-1.8 9.8-16.1 24.9-18.7c5.5-.9 80.5-34 86.9-36.7 24-9.9 61.9-60.2 61.9-60.2l-22.2-18.6z"/><path fill="#003251" d="M1932.749 649.504l-41.8 200.8 17.9 142.2 20.3-2.4s8.3-65 8.3-123.8c0-60.3 81.6-189.3 73.7-212.3-8.1-23-82.8-58.8-78.4-4.5z"/><path fill="#FFB68E" d="M1911.349 1009.303l18.5-1.1-.8-20.4-20.2 4.7z"/><path fill="#000538" d="M1874.049 1026.404l57.8-2.4-.9-17.8s-20.6-4.6-33 1.5c-12.4 6.2-23.1 8.9-23.9 18.7z"/><path fill="#003D68" d="M1909.749 631.803l-105.1 137.8 47.9 131.4 23-6.4s-.3-47.8-15.1-104.7c-9.1-35.2 158.5-100.9 150.4-123.9-8-23.1-105.6-88.4-101.1-34.2z"/><path fill="#FFB68E" d="M1857.849 916.204l18.5-1.2-.8-20.3-20.2 4.6z"/><path fill="#000538" d="M1820.549 933.303l57.8-2.4-.9-17.8s-20.6-4.6-33 1.5c-12.4 6.1-23.1 8.9-23.9 18.7z"/><path fill="#FFB68E" d="M1886.649 348.004s-21.7 31-19.6 39.5c2 7.9 19.7 8.4 18.3 13s-16.3 28-16.3 28 19-6.6 26.6-.7c3.4 2.6 6.3 5.5 6.3 5.5s21.3-72.1 2.6-83.5c-18.7-11.2-17.9-1.8-17.9-1.8z"/><path fill="#8898BA" d="M1905.249 420.404s44.7 5.5 89 126c20.3 55.3 16.5 119.5 16.5 119.5l-114.8-31.5c9.5-68.3-45.4-190.8-29.1-210.4 6.7-8.3 31.1-8.8 38.4-3.6z"/><path fill="#FFB68E" d="M1853.649 440.103s-74.6-52.8-91-68.4c-18.2-17.2-36.3-55.3-40.3-69.7-2.4-8.4 1.1-14.7 1.1-14.7s-8.9-1.6-13.2-15.5c-2.5-8-2.2-18.4-5-15.8-2.8 2.6-4.8 20.9 2.2 37.5 6.9 16.5 17.2 55.1 36.9 87.4 26 42.8 112.4 95 112.4 95l-3.1-35.8z"/><path fill="#8898BA" d="M1732.949 323.603l-17.2 10.4s18.4 51.7 53.9 88.7c36.3 38 86.8 70.5 96 67.3 18.2-6.5 41.6-35.3 33.4-51.9-1.8-3.8-60.7-12.4-102.4-43.2-39.7-29.2-63.7-71.3-63.7-71.3z"/><path fill="#8898BA" d="M1757.749 564.704s65.6-47.7 73.7-51c8.1-3.3 19.7-76.1 55.8-80 36.1-4 18.9 61.7 18.9 61.7s-43.3 38.6-68 52.9c-18.8 10.9-85.6 33.7-85.6 33.7l5.2-17.3z"/><path fill="#172755" d="M1910.949 392.303s-7.4-6.6-6-10.5 7.9-13.7 4.2-16.4c-3.6-2.7-5 .5-7.4-.9s-26.6-6.9-33.6-26.8c-6.9-19.8 15.6-27.4 25.7-19.5 10.1 8-1 15.7-1 15.7s15.3 5.7 27.8 18.1c12.4 12.7-9.7 40.3-9.7 40.3z"/><ellipse opacity=".18" fill="#003B64" cx="2516.249" cy="1243.604" rx="185" ry="10.9"/><path opacity=".18" fill="#003B64" d="M2918.849 1240.204c0 4.1-44.9 7.5-100.2 7.5-55.4 0-100.2-3.4-100.2-7.5s44.9-7.5 100.2-7.5 100.2 3.4 100.2 7.5z"/><path fill="#2E4372" d="M2856.049 865.603l14.8 175.4-8.1 165.9 30.4-3.4s25.9-139.5 28.9-178.5c1.2-15.9-8.2-228.1-8.2-228.1s-61.7-12.3-57.8 68.7z"/><path fill="#FFB68E" d="M2888.949 1227.204s-5.4-1.9-7.1-4.3c-1.7-2.3 4.1-18.6 4.1-18.6l-19.7 2.2v21.4l24.2 6.4-.6-8.4-.9 1.3z"/><path fill="#000538" d="M2866.249 1224.604s-2.1 12.5 0 15.2c2.1 2.6 47 3.8 47 3.8l.7-6.5s-9.5-2.2-15-5.1c-5.5-2.8-8-8-8-8l-3.7 6-21-5.4z"/><path fill="#5A6A96" d="M2808.349 851.004l4.7 190-8.1 165.9 30.4-3.4s25.9-139.5 28.9-178.5c1.2-15.9 20.3-242.8 20.3-242.8s-80.1-12.2-76.2 68.8z"/><path fill="#003D68" d="M2836.949 631.103c-13.3.1-24.8 9.2-27.7 22.2-3.7 16.7-7.6 43.7-7.6 82.9 0 72.6 5.6 107.4 5.6 107.4l111.9-17s-9-79.9 12.8-152.4c11.9-39.1-58.2-43.4-95-43.1z"/><path fill="#FFB68E" d="M2883.749 518.204s-25.4 21.1-27.5 44.3c-1 10.5 18.2 15.6 18.2 15.6.3 25.9-27.3 51.6-27.3 51.6s13.7 12.3 31.8 15.9c27.3 5.5 25.8-6 25-9.1-8.9-33.4 25.8-81.6 10.6-104.2-15.1-22.6-30.8-14.1-30.8-14.1z"/><path fill="#172755" d="M2891.549 525.103s-7.1-9.5-18.1-15.1-.5-36.4 3.4-35.9 12.7 19.5 20.9 28.4c8.3 8.9 28.9 21.8 26.6 47.2s-22.9 47.7-22.9 47.7-7.1-8.5-7.3-12.9c-.2-4.5 12.2-12.5 11.3-17.8s-7.6-.9-10.5-2.1 10.4-18.4-3.4-39.5z"/><path fill="#FDD247" d="M2875.049 679.204l-28-49.4-8-.1 14.7-11.7s15.4 8 22.9 15.7 10.6 13.2 10.6 13.2l13.8-16.3 14.8 4.9 3.3 6.7-44.1 37z"/><path fill="#FDD247" d="M2918.449 699.103s63.3 23 74.2 9.5c9.3-11.5-11.6-59-55.9-109.1-15.7-17.8-26.7-24.9-26.7-24.9l-10.4 12.4 60 90.2s-34-25.3-37.5-28.7-10.5 26.9-3.7 50.6z"/><path fill="#63717D" d="M2899.749 587.004l-15.2-8.2 18.4-41.7 20.1 10.4z"/><path fill="#FFB68E" d="M2903.349 585.303s-8.4-4.6-6.4-13.1c1.9-8.5 5.5-18.4 6.4-22.6.9-4.2 5.4-2 5.2 1.8-.1 3.8-1.2 9.3-1.2 9.3s5.7-7.4 6.1-13.1c.4-5.7-2.2-15.7 1.8-14.2 3.9 1.5 10.3 24 8.3 30.7-1.9 6.7-10.4 14.1-10.4 14.1l-9.8 7.1zm-72.3 641.901s-5.4-1.9-7.1-4.3c-1.7-2.3 4.1-18.6 4.1-18.6l-19.7 2.2v21.4l24.2 6.4-.6-8.4-.9 1.3z"/><path fill="#000538" d="M2808.349 1224.604s-2.1 12.5 0 15.2c2.1 2.6 47 3.8 47 3.8l.7-6.5s-9.5-2.2-15-5.1c-5.5-2.8-8-8-8-8l-3.7 6-21-5.4z"/><path fill="#FDD247" d="M2823.649 678.303s-37.6 49.6-78 35-71.6-74.5-71.6-74.5l10.5-11.6s26.6 36.8 66.7 50c26.5 8.8 43.5-25.1 58.1-37.3 23.9-20 43.8 5.4 14.3 38.4z"/><path fill="#003351" d="M2584.949 1223.204l-18.8-158.6 6.4-215.6s-11.9-48.6 38 10.4c49.9 58.9-7.6 208.6-5.7 216.2 2.9 11.7 5.7 150.4 5.7 150.4l-25.6-2.8z"/><path fill="#000538" d="M2672.949 1230.004l-17.5-1.1-14.2 9.2s-18.2 4-23 8 56.1-1.1 56.1-1.1l-1.4-15z"/><path fill="#003D68" d="M2648.849 1223.204l-18.8-158.6-35.4-221.6s15.6-26.6 79.8 16.4c5.9 3.9-7.6 208.6-5.7 216.2 2.9 11.7 5.7 150.4 5.7 150.4l-25.6-2.8z"/><path fill="#FFB68E" d="M2655.049 1223.904l18.2 2-.4 6.1-17.3-3z"/><path fill="#000538" d="M2609.049 1230.004l-17.5-1.1-14.2 9.2s-18.2 4-23 8 56.1-1.1 56.1-1.1l-1.4-15z"/><path fill="#FFB68E" d="M2591.149 1223.904l18.2 2-.4 6.1-17.3-3z"/><path fill="#CFDBE2" d="M2383.449 625.704l92.2 27.1 112.8-35.2 1.2 50s-91.9 22.7-105.6 23.5-50.7-3.4-76.6-21.7c-16.9-11.9-34-26.2-34-26.2l10-17.5z"/><path fill="#FFB68E" d="M2589.449 532.303s-16.4 25.9-11.5 47c2.2 9.6 20.6 8.5 20.6 8.5 7.7 22.8-1.3 53.5-1.3 53.5s9.3-2.7 24.8 4.8c8.9 4.3 18-18.1 16.4-20.6-17.5-26.9 2.3-74-17.6-89.6-20-15.7-31.4-3.6-31.4-3.6z"/><path fill="#172755" d="M2599.449 537.204s-.5-9.7-13.8-9.4c-11.5.2-26.2-25.6-12.4-33.4 16-9.1 27.8 8.4 37.4 19.3 11.4 12.9 16.5 13.7 23.2 15.7 5.1 1.6 14.7 3.8 16.7 14.4 1.2 6.2-5.6 13.2-8.1 16.6 0 0 6.6 1.3 9 8.1 2.2 5.9-20.1 27.3-20.1 27.3s-11.2-3.1-12.7-7 7.1-14.6 4.8-19-7.7-.8-9.9 1.2c-.9.8-4.7-2.5-4-10.4.2-2.3 4.1-6.6 4.1-6.6s-8.4-.5-12.3-5.2c-5.1-6.4-1.9-11.6-1.9-11.6z"/><path fill="#CFDBE2" d="M2677.949 757.504c-3.8-39.1.1-103.3-1.8-113.6-1.9-10.4-34-48.2-86.1-26.7-5.4 2.2-11.6 6.4-17.6 12.3-14.4 14.1-2.4 95.9-3.5 142s-2.9 90.3-2.9 90.3l18.7 18.4 14.6-31.2 23.1 35.8 62.1-22.9c0-.1-2.8-65.3-6.6-104.4z"/><path fill="#FFB68E" d="M2684.549 627.204s-12.8-9.1-26-10.7c-11.4-1.3-22.2 1.6-23.7 4.1-3.1 5.3 28.4 8.4 28.4 8.4s-17.2.9-10.8 4.9c2.8 1.8 27.9 5.9 27.9 5.9l4.2-12.6z"/><linearGradient id="r" gradientUnits="userSpaceOnUse" x1="19819.076" y1="-10774.817" x2="19929.172" y2="-10774.817" gradientTransform="scale(-1 1) rotate(28.659 -13877.484 -49037.534)"><stop offset=".189" stop-color="#ffd234"/><stop offset=".986" stop-color="#ffb000"/></linearGradient><path fill="url(#r)" d="M2617.449 621.004l-4.9 16.5 12.4 186.7-23-2 6-184-6-15.2z"/><path fill="#DE5F12" d="M2679.568 908.043l116.44-66.12 46.614 82.09-116.44 66.12z"/><path d="M2715.049 936.103l88.2-50-5.6-44.4-3.6.4 5.3 42-84 47.8-34.9-25.4-2.1 3z"/><path fill="#003B64" d="M2713.049 997.404l13-7.3-45.6-80.2-4.5 2.6z"/><path fill="#FFA600" d="M2744.8 903.05l20.088-11.406 8.493 14.957-20.088 11.407z"/><path fill="#DE5F12" d="M2691.649 868.004l57.4-32.6 21.9 38.6-57.4 32.6-21.9-38.6zm54.6-22.7l-44.8 25.4 14.8 26 44.8-25.4-14.8-26z"/><path fill="#FFB68E" d="M2732.849 878.303s17.8-1.2 13.7-23.7c-2.2-11.8-13.3-20.8-13.3-20.8s-23.1-76.4-35.8-103.7c-5.7-12.3-28.5 8.9-18.9 12.3 9.6 3.4 34.8 86.9 37.9 107.5 1.4 9.7-4.1 17.6.2 19.4 5.9 2.4 7.1-19.1 7.1-19.1s2.7 17.4 9.1 28.1z"/><path fill="#CFDBE2" d="M2714.649 841.704l-37.6-80.8-36-112.4 32.9-9.6s23.5 82.4 31 93.9 32.3 102 32.3 102l-22.6 6.9z"/><path fill="#FFB68E" d="M2383.449 625.704s-61.1-25.8-59.6-19.8 10.4 11.2 12.4 15.4-.5 18.5 12 22.5 25.1-.6 25.1-.6l10.1-17.5z"/><path fill="#CFDBE2" d="M852.049 678.004h954.1l76.6 36.2h-906.9z"/><path fill="#D6DEED" d="M1882.749 1260.904h-906.9v-546.7h906.9v43.7l-56.8 32.1 56.8 27.2v31l-15.5 41.8 15.5 28.3v27.8l-50.6 32.4h50.6v50.2l-26.8 23.1 26.8 43.9-21.1 45.3 21.1 37.4v39.1l-13 15.1 13 16.9z"/><path fill="#5A6A96" d="M975.849 1260.904l-58.2-18.1-3.9-546.7 62.1 18.1z"/><path fill="#F0FFFC" d="M1267.649 866.404h-291.8l145.9 47.1z"/><path fill="#5A6A96" d="M975.849 1147.504l106.8-28.8h-106.8l17.9-76-24.8-48.8zm0-307h138.8l-152.3-23.3zm-24.7-100.5h219.1l-207.9-20.4zm0 427.9l219.1-10.2-207.9-10.2zm-10.3 70h119.8l-108.6-20.4z"/><path fill="#5A6A96" d="M975.049 823.904l14.2-35.7-26.9-32.1zm-123 401v-48.1l65.6 19-65.6-25.9v-62l36.2 2.3-36.2-12.5v-110.2l13-26.1-14-25v-36.4l59.7-2.3-60.7-20.6v-59.9l9.5-21.3-7.5-20.9v-45.2l55.9 20.2-55.9-35.8v-36.2l88.8 26v545.5z"/><path fill="#F0FFFC" d="M1531.249 1147.504h-383.2l197.1 30.9zm305.6-146.1h-267.7l250 50.4zm45.9-184.2l-256.7-1.9 313.5 32.9zm-510.3 215.2h-383.2l117.7 30.9zm280.1-129.5h-275l177.3 23.9zm150.1 327.1h-275l180.3 12z"/><path fill="#5A6A96" d="M1712.449 957.803l-508.8-1.8 371.4 19.1zm174-199.899l-327.1-1.8 289.3 19.2zm-204.9 429.8l-285.8 1.2 217.5 14.4z"/><path fill="#F0FFFC" d="M1246.349 787.803h-257.1l71.4 18.7z"/><path fill="#5A6A96" d="M1229.749 1223.204h-257.1l71.5 18.8z"/><path fill="#FFF" d="M946.749 865.004l-95.6-33.7-30.3 22.7zm29.1 185.6l-114.6-33.8 30.3 35z"/><linearGradient id="s" gradientUnits="userSpaceOnUse" x1="1039.134" y1="-5675.279" x2="1193.591" y2="-5675.279" gradientTransform="translate(0 6920)"><stop offset=".189" stop-color="#ffd234"/><stop offset=".986" stop-color="#ffb000"/></linearGradient><path fill="url(#s)" d="M1045.549 1271.803s18.4-77.5 68.2-96.1c49.7-18.5 85.1 28.7 79.2 61.5-5.9 32.8-47.2-15.1-85.1 0-37.9 15.1-68.1 80.7-68.1 80.7s-3.4-7.3 5.8-46.1z"/><linearGradient id="t" gradientUnits="userSpaceOnUse" x1="734.082" y1="-5775.683" x2="1063.247" y2="-5775.683" gradientTransform="translate(0 6920)"><stop offset=".189" stop-color="#ffd234"/><stop offset=".986" stop-color="#ffb000"/></linearGradient><path fill="url(#t)" d="M1037.149 1309.704s-28.6-169.6-120.3-163.6c-75.6 4.9-136.7 39.4-173.6-26.5-45.6-81.5 85.8-202.1 242.1-103.9 136.8 85.9 51.8 294 51.8 294z"/><linearGradient id="u" gradientUnits="userSpaceOnUse" x1="857.408" y1="-5675.165" x2="1039.149" y2="-5675.165" gradientTransform="translate(0 6920)"><stop offset=".189" stop-color="#ffd234"/><stop offset=".986" stop-color="#ffb000"/></linearGradient><path fill="url(#u)" d="M887.549 1261.303c-24-9.9-36.6-37.4-26.8-61.4 3.9-9.6 11.1-18 23.8-22.2 40.4-13.5 74.9 19.6 117.5 67.6 21.5 24.3 37.1 69.7 37.1 69.7s-98.9-31.9-151.6-53.7z"/><path fill="#FFF" d="M1034.249 1321.704c-.4 0-.9-.1-1.3-.2-1.9-.7-2.9-2.8-2.2-4.7.4-1.2 43.4-120.8-39.2-201.8-82.5-81.1-208.2-28.6-209.5-28.1-1.9.8-4-.1-4.8-1.9-.8-1.9.1-4 1.9-4.8 1.3-.6 131.5-54.8 217.5 29.6 85.9 84.4 41.3 208.4 40.9 209.6-.4 1.4-1.8 2.3-3.3 2.3z"/><path fill="#FFF" d="M1039.149 1318.604c-1.5 0-2.9-.9-3.4-2.3 0-.1-6.6-15-48.4-50.3-42.7-36-101-58-101.6-58.2-1.9-.7-2.9-2.8-2.1-4.7.7-1.9 2.8-2.8 4.7-2.1.6.2 60.1 22.7 103.8 59.5 27.3 23 40.1 37.7 45.9 45.8 8.5-27.3 39.3-115.7 85-124.3 16.6-3.1 30.2-.6 40.4 7.4 16.6 13 18.1 35.6 18.2 36.5.1 2-1.4 3.7-3.4 3.9-1.9.2-3.7-1.4-3.9-3.4 0-.2-1.4-20.3-15.4-31.2-8.5-6.6-20.2-8.7-34.5-6-48.5 9.1-81.3 125.7-81.6 126.9-.4 1.5-1.8 2.6-3.3 2.7-.3-.2-.4-.2-.4-.2zm-214.7-170.6c-.7 0-1.5-.2-2.1-.7-1.6-1.2-2-3.5-.8-5.1l56.6-78.5c1.2-1.6 3.5-2 5.1-.8s2 3.5.8 5.1l-56.6 78.5c-.8 1-1.9 1.5-3 1.5zm95.8-6.701c-1.2 0-2.3-.5-3-1.6-1.2-1.7-.7-3.9.9-5.1l57.1-39.7c1.7-1.2 3.9-.7 5.1.9 1.2 1.7.7 3.9-.9 5.1l-57.1 39.7c-.7.4-1.4.7-2.1.7zm112.2 31.401h-.4l-48.7-5.2c-2-.2-3.5-2-3.2-4 .2-2 2-3.5 4-3.2l48.7 5.2c2 .2 3.5 2 3.2 4-.2 1.8-1.8 3.2-3.6 3.2z"/><path fill="#FFF" d="M1045.949 1235.303c-.7 0-1.4-.2-2-.6l-32.2-21.1c-1.7-1.1-2.2-3.4-1.1-5.1 1.1-1.7 3.4-2.2 5.1-1.1l32.2 21.1c1.7 1.1 2.2 3.4 1.1 5.1-.8 1.2-1.9 1.7-3.1 1.7zm-86.9 56.401c-1.4 0-2.8-.9-3.4-2.3-.8-1.9.1-4 2-4.8l36.8-15.2-14.2-34.5c-.8-1.9.1-4 2-4.8s4 .1 4.8 2l15.6 37.9c.8 1.9-.1 4-2 4.8l-40.1 16.6c-.5.2-1 .3-1.5.3zm-87.8-50.7c-1.6 0-3-1-3.5-2.6-.6-1.9.5-4 2.4-4.6l49.7-15.2-9.9-37.9c-.5-2 .7-4 2.6-4.5 2-.5 4 .7 4.5 2.6l10.8 41.3c.5 1.9-.6 3.9-2.5 4.4l-53.1 16.2c-.3.2-.7.3-1 .3zm27.5 25.9c-1.6 0-3.1-1.1-3.5-2.7-.5-1.9.6-4 2.6-4.5l62.8-17.4-10.4-37.4c-.5-1.9.6-4 2.5-4.5s4 .6 4.5 2.5l11.4 40.9c.3.9.1 1.9-.3 2.8-.5.8-1.3 1.5-2.2 1.7l-66.3 18.4c-.5.1-.8.2-1.1.2z"/><path fill="#FFB68E" d="M2132.249 716.904c1.5-7.1 3.3-12.6-3-16.2-23.5-13.3-82.7-59.7-88-69.2-6.7-11.8-25.8-68-25.8-68l1-16.9s-10.8-18.9-14.5-18c-3.6.9 3.6 16.4 4.1 28.6.7 13.9 7.4 70.2 25.6 96.6 18.2 26.3 68.5 85.6 88.8 77.9 6.1-2.1 10.6-8.9 11.8-14.8z"/><path fill="#2E4372" d="M2150.449 1207.204s-29.7-130.5-33.6-142c-3.9-11.5-6-174.2-6-174.2l53.1 10.9-5.5 151.4 12.5 152-20.5 1.9z"/><path fill="#5A6A96" d="M2091.049 1207.204s-28-130.5-31.9-142 27.9-181.6 27.9-181.6l76.9 18.4-63.3 151.4 12.5 152-22.1 1.8z"/><path fill="#FFB68E" d="M2090.749 1246.204s-14 .5-8-3.4c22.3-14.5 15-36 15-36l15.3-2.2-.3 20.3-12.5 17.3c0 .2 3.2 5.4-9.5 4z"/><path fill="#003B64" d="M2194.349 1249.303c0 6.1-82.5 11.2-184.3 11.2s-184.3-5-184.3-11.2c0-6.1 82.5-11.2 184.3-11.2 101.7.1 184.3 5.1 184.3 11.2z" opacity=".18"/><linearGradient id="v" gradientUnits="userSpaceOnUse" x1="24553.5" y1="-5683.347" x2="24563.83" y2="-5683.347" gradientTransform="matrix(-1 0 0 1 26669.725 6920)"><stop offset=".189" stop-color="#ffd234"/><stop offset=".986" stop-color="#ffb000"/></linearGradient><path fill="url(#v)" d="M2105.849 1250.504l.8-16.8 9.6-10.9-4 27.7z"/><linearGradient id="w" gradientUnits="userSpaceOnUse" x1="24552.191" y1="-5684.45" x2="24598.125" y2="-5684.45" gradientTransform="matrix(-1 0 0 1 26669.725 6920)"><stop offset=".189" stop-color="#ffd234"/><stop offset=".986" stop-color="#ffb000"/></linearGradient><path fill="url(#w)" d="M2112.249 1218.504s1.7-1.7 4.6 3.3c2.3 3.9-1.4 13.2-1.4 13.2s-6.7.6-11 7.5c-1.1 1.7-3.1 5.7-6.1 9-3.1 3.2-26.5-.2-26.5-.2s-.9-1.6 2.8-3.9c3.8-2.4 8.2-4.3 8.2-4.3s6 4.4 11.5.6c5.2-4.2 17.9-25.2 17.9-25.2z"/><path fill="#FFB68E" d="M2148.749 1246.204s-13.9.5-8-3.4c22.3-14.5 15-36 15-36l15.3-2.2-.3 20.3-12.5 17.3c.1.2 3.3 5.4-9.5 4z"/><linearGradient id="x" gradientUnits="userSpaceOnUse" x1="24495.377" y1="-5683.347" x2="24505.709" y2="-5683.347" gradientTransform="matrix(-1 0 0 1 26669.725 6920)"><stop offset=".189" stop-color="#ffd234"/><stop offset=".986" stop-color="#ffb000"/></linearGradient><path fill="url(#x)" d="M2164.049 1250.504l.7-16.8 9.6-10.9-3.9 27.7z"/><linearGradient id="y" gradientUnits="userSpaceOnUse" x1="24494.023" y1="-5684.45" x2="24539.957" y2="-5684.45" gradientTransform="matrix(-1 0 0 1 26669.725 6920)"><stop offset=".189" stop-color="#ffd234"/><stop offset=".986" stop-color="#ffb000"/></linearGradient><path fill="url(#y)" d="M2170.349 1218.504s1.7-1.7 4.6 3.3c2.3 3.9-1.4 13.2-1.4 13.2s-6.7.6-11 7.5c-1.1 1.7-3.1 5.7-6.1 9-3.1 3.2-26.5-.2-26.5-.2s-.9-1.6 2.8-3.9c3.8-2.4 8.2-4.3 8.2-4.3s6 4.4 11.5.6c5.3-4.2 17.9-25.2 17.9-25.2z"/><linearGradient id="z" gradientUnits="userSpaceOnUse" x1="24497.877" y1="-6123.207" x2="24611.738" y2="-6123.207" gradientTransform="matrix(-1 0 0 1 26669.725 6920)"><stop offset=".189" stop-color="#ffd234"/><stop offset=".986" stop-color="#ffb000"/></linearGradient><path fill="url(#z)" d="M2105.949 692.404c-12.6 1.9-17.4 7.4-23.2 18.8-4.4 8.8-14.3 29.7-23.9 40.1-6.3 6.8 24 145.7 24 145.7l89 4.9s-22.1-60.8-23.6-100.2c-1.5-39.5-3.1-87.7-10.7-96.8-11.3-13.6-20.3-14.3-31.6-12.5z"/><path fill="#FFB68E" d="M2097.249 739.603c1.9-6.9 4.1-12.4-1.9-16.4-22.7-14.8-78.8-64.7-83.6-74.5-5.9-12.2-16.5-78.6-16.5-78.6s10.8-14.5 7.1-17c-2.8-1.8-10.1 9.3-10.1 9.3s-2.4-21.9-6-21.2-13.9 13.3-7.1 25.4c6.8 12.1 5.2 76.4 21.9 103.7 16.6 27.4 63.2 89.6 83.8 83.2 5.9-1.8 10.7-8.1 12.4-13.9z"/><path fill="#FFB68E" d="M2079.649 620.603s-12.5 24.5-6.9 45.2c1.6 6.1 18.9 6.8 18.9 6.8 5.2 14.6-6.9 36.4-6.9 36.4s9.3-12 19.5-7.4c5.8 2.6 13.7-.5 12.5-2-11.6-17.1 14.8-64.6 1.7-74.3-13.2-9.6-38.8-4.7-38.8-4.7z"/><path fill="#172755" d="M2094.449 616.404c-9.5-.5-17.5-8.1-17.3-17.5.1-3.5 1.1-7.3 3.9-11.4 10.8-16.1 26.6 5.2 27 9.8.3 4.6 13-23.7 43 1.8 30.1 25.5-.3 60.1 11.5 77.9 11.8 17.9 23.5 10.1 26.5 25.5 3.2 15.4-17.2 16.7-17.2 16.7s5.2 9.1-6.3 16.7c-11.5 7.7-28.4-2.4-28.4-2.4s-4 14.3-16.4 15.4c-12.4 1-25.8-35.8-17.6-66.7 9.9-37.1 18.2-42.9 18.6-52 .3-9.1-4.9-3.2-7.3-2.8-2.2.5 1.1-9.9-20-11z"/><path fill="#FFF" d="M1049.849 61.404c-.2 1.2 2 7.8 6.6 10.9 4.7 3.1 14.9 3.5 14.9 3.5l1.8 13.8s-11.2-2.8-17.8-9.5-8.2-10-8.2-10l2.7-8.7zm27.2 17.6s9.5-1.7 12-8.9c2.4-7.2-2.3-11-2.3-11l8.3 9.9s.8 3.7-6.9 10-13.3 10.6-13.3 10.6l2.2-10.6z"/><path fill="#2C3F6B" d="M169.349 1201.803l-2-165.8-4.1-200.4s-9.2-83.3-52.6-15.9c-43.5 67.4 19.3 224.8 18.4 232.9-1.4 12.4 14.3 155.6 14.3 155.6l26-6.4z"/><path fill="#000538" d="M3.349 1227.104l18.2.6 13.8 10.8s18.4 5.9 23 10.5-57.9-6.4-57.9-6.4l2.9-15.5z"/><path fill="#5A6A96" d="M29.049 1222.404l34.5-162.2 64.8-169.8s2.6-88.1-67.8-49.8c-6.5 3.5-35.4 219.6-38 227.3-4.1 11.8-20.2 154.9-20.2 154.9l26.7-.4z"/><path fill="#FFB68E" d="M22.549 1222.504l-19 .4-.2 6.2 18.2-1.4z"/><path fill="#000538" d="M145.349 1212.104l17.9-3.5 15.9 7.5s19.2 1.7 24.7 5.2-57.9 6.4-57.9 6.4l-.6-15.6z"/><path fill="#FFB68E" d="M163.049 1203.404l-18.5 4.5 1.2 6.2 17.5-5.5z"/><g fill="#2C3F6B"><path d="M301.249 487.704s14.9 11-1.3 28.4c-8.5 9.1-23.3 10.7-23.3 10.7s-50.2 101.7-76.5 118.5c-11.9 7.6-112.3 13.7-112.3 13.7l.7-39.4s91.5 1.9 101.9 4.3c10.4 2.4 66.3-104.4 80.5-120.7 6.7-7.7 6.3-17.7 11.1-16.8 6.5 1.2-4.4 20.6-4.4 20.6s12.1-13.4 23.6-19.3z"/><path d="M253.149 529.204l-61.5 89.7-109.2-2.5 1.2 50.5s105.7-2.8 118.7-8.7 34.7-48 49.8-77.3c9.8-19.1 18.7-40.5 18.7-40.5l-17.7-11.2zm5.3-8.601l-5.3 8.6 17.7 11.2 4.4-10.2z"/></g><path fill="#FFB68E" d="M52.049 530.803s24.2 20.7 25.9 43.1c.8 10.2-17.8 14.8-17.8 14.8-.6 25 17.8 52.6 17.8 52.6s-10.1.2-23.1 12.4c-7.5 7-23.4-12.4-22.6-15.4 9-32.1-25.1-72.7-10.2-94.3 15-21.6 30-13.2 30-13.2z"/><path fill="#172755" d="M43.649 538.803s4.8 4.2 15.4-1.1c10.7-5.3 12.9-23.3-.5-32.8-3.7-2.6-18.1-7.9-26.2 12.3 0 0-10.4-5.7-16.7 1.5-9 10.2-1.9 23.7-1.9 23.7s-14.7 1.3-13.7 18c.4 6.6 4.6 12 8.1 14.6 0 0-6.1 3.3-6.5 10.8-.3 6.5 9 13.3 15.3 10.7 0 0 2.3 3.8 3.8 5.8 4.7 6.1 9.1 4.3 9.1 4.3s10.1-6.5 10.4-10.8-11.6-12.2-10.7-17.3 7.4-3.2 10.2-1.9c1.1.5 5.3-5.8 2.2-13.4-.9-2.2-4.9-4.9-4.9-4.9 0-2.4 6.7-5 7.9-7.5 3.9-7.7-1.3-12-1.3-12z"/><path fill="#FFF" d="M57.149 848.704l3 3.7s22.6 22 40.4 24.7c57.6 8.7 60.1-36.9 60.1-36.9s-54.6-187-64.3-203.9c-16.5-28.6-49.5-19.3-61.7-13.2-12 5.9-21 15.6-27.4 24.6-8.1 11.4-6.9 27.1 2.9 37.1 26.1 27.1 83.3 111 47 163.9z"/><path fill="#2C3F6B" d="M34.649 623.103l64.7 107-35.9-115.3s5.8-.8 14.3.4c6 .9 13.5 2.8 21.2 6.7 18.7 9.6 32.1 94.3 47.4 139.7s30.8 88.7 30.8 88.7l-22 33.4-15-35.9-11.8 42.6-80.2-4.1s-5.9-64.9-14.2-104.8c-8.3-39.9-32.1-102.3-33.4-113.2-1.3-10.9 5.3-37 34.1-45.2z"/><linearGradient id="A" gradientUnits="userSpaceOnUse" x1="-1164.69" y1="-3550.253" x2="-1092.99" y2="-3550.253" gradientTransform="rotate(11.333 -21805.717 4624.99)"><stop offset=".189" stop-color="#ffd234"/><stop offset=".986" stop-color="#ffb000"/></linearGradient><path fill="url(#A)" d="M48.749 617.704l8.7 9.6 8.1 46.9 33.8 55.9-13.9-59.4-24.1-44.7-.1-9.4z"/><path fill="#FFF" d="M116.349 504.404h493.7v254.4h-493.7z"/><path fill="#00445B" d="M576.049 748.204c2.9 0 5.2-2.3 5.2-5.2v-203.5c0-2.9-2.3-5.2-5.2-5.2-2.9 0-5.2 2.3-5.2 5.2v203.4c0 2.9 2.3 5.3 5.2 5.3z"/><path fill="#00445B" d="M151.549 721.504h444.1c2.9 0 5.2-2.3 5.2-5.2s-2.3-5.2-5.2-5.2h-444.1c-2.9 0-5.2 2.3-5.2 5.2s2.3 5.2 5.2 5.2z"/><linearGradient id="B" gradientUnits="userSpaceOnUse" x1="201.126" y1="-6309.758" x2="546.238" y2="-6309.758" gradientTransform="translate(0 6920)"><stop offset=".189" stop-color="#ffd234"/><stop offset=".986" stop-color="#ffb000"/></linearGradient><path fill="url(#B)" d="M541.049 696.904c.8 0 1.7-.2 2.4-.6 2.6-1.4 3.5-4.5 2.2-7.1l-26.6-50.5c-.8-1.6-2.4-2.6-4.2-2.8-1.8-.1-3.5.7-4.6 2.1l-27.5 36.7-46.8-66c-1-1.4-2.5-2.2-4.2-2.2h-.1c-1.6 0-3.2.8-4.2 2.1l-48.1 63.6-47.8-93.1c-.9-1.7-2.6-2.8-4.6-2.9-2-.2-3.7 1-4.7 2.7l-55.7 100.1-55.3-152c-1-2.7-4-4.1-6.7-3.1s-4.1 4-3.1 6.7l59.2 162.8c.7 1.9 2.5 3.3 4.5 3.4 2 .2 4-.9 5-2.7l56.6-101.6 47.2 91.8c.8 1.6 2.4 2.7 4.2 2.8 1.8.1 3.5-.6 4.6-2.1l48.8-64.5 46.8 66c1 1.4 2.5 2.2 4.2 2.2 1.6.1 3.3-.8 4.3-2.1l26.8-35.9 22.8 43.1c.9 2.1 2.7 3.1 4.6 3.1z"/><linearGradient id="C" gradientUnits="userSpaceOnUse" x1="188.037" y1="-6376.718" x2="244.781" y2="-6376.718" gradientTransform="translate(0 6920)"><stop offset=".189" stop-color="#ffd234"/><stop offset=".986" stop-color="#ffb000"/></linearGradient><path fill="url(#C)" d="M193.349 566.803c2.2 0 4.2-1.3 4.9-3.5l10.7-30.4 27.8 17.7c2.4 1.6 5.7.8 7.2-1.6 1.6-2.4.8-5.7-1.6-7.2l-33.4-21.2c-1.3-.9-3-1.1-4.5-.5-1.5.5-2.7 1.7-3.2 3.2l-12.9 36.6c-1 2.7.5 5.7 3.2 6.7.6.1 1.2.2 1.8.2z"/><path fill="#00445B" d="M420.649 561.103h-39.9c-2.9 0-5.2-2.3-5.2-5.2s2.3-5.2 5.2-5.2h39.9c2.9 0 5.2 2.3 5.2 5.2s-2.3 5.2-5.2 5.2zm-10.6 34.2h39.9c2.9 0 5.2-2.3 5.2-5.2s-2.3-5.2-5.2-5.2h-39.9c-2.9 0-5.2 2.3-5.2 5.2 0 2.8 2.3 5.2 5.2 5.2zm89.5 31.5h39.9c2.9 0 5.2-2.3 5.2-5.2s-2.3-5.2-5.2-5.2h-39.9c-2.9 0-5.2 2.3-5.2 5.2 0 2.9 2.3 5.2 5.2 5.2zm-356.2-24.5h39.9c2.9 0 5.2-2.3 5.2-5.2s-2.3-5.2-5.2-5.2h-39.9c-2.9 0-5.2 2.3-5.2 5.2-.1 2.9 2.3 5.2 5.2 5.2zm0 24.5h39.9c2.9 0 5.2-2.3 5.2-5.2s-2.3-5.2-5.2-5.2h-39.9c-2.9 0-5.2 2.3-5.2 5.2-.1 2.9 2.3 5.2 5.2 5.2zm0 24.601h39.9c2.9 0 5.2-2.3 5.2-5.2s-2.3-5.2-5.2-5.2h-39.9c-2.9 0-5.2 2.3-5.2 5.2-.1 2.8 2.3 5.2 5.2 5.2zm0 24.5h39.9c2.9 0 5.2-2.3 5.2-5.2s-2.3-5.2-5.2-5.2h-39.9c-2.9 0-5.2 2.3-5.2 5.2-.1 2.9 2.3 5.2 5.2 5.2z"/><path fill="#FFB68E" d="M259.449 752.904s-.8 18.5-24.3 14.8c-12.3-2-21.9-13.3-21.9-13.3s-112.4 15.2-141 2.8c-12.9-5.6-38.1-57.1-38.1-57.1l-.6-35.8s47.2 63.1 51 73 123.6-3.4 145.1-.7c10.1 1.2 18.2-4.7 20.2-.2 2.6 6.1-19.6 7.9-19.6 7.9s17.9 2.3 29.2 8.6z"/><path fill="#5A6A96" d="M198.149 736.103l-108.8-.8-71.7-103.7s-8.7 5-14.8 21.8c-11 30 47.9 105.3 60 112.8s59.2 2 91.9-1.9c21.4-2.5 44-7.1 44-7.1l-.6-21.1z"/><path fill="#FFF" d="M208.149 735.803l-10 .3.6 21 10.9-2.1z"/><linearGradient id="D" gradientUnits="userSpaceOnUse" x1="2746.302" y1="-10245.997" x2="2817.001" y2="-10245.997" gradientTransform="rotate(-18.666 34156.031 2761.05)"><stop offset=".189" stop-color="#ffd234"/><stop offset=".986" stop-color="#ffb000"/></linearGradient><path fill="url(#D)" d="M241.649 496.303c-.7 0-1.4-.2-2-.5-2.1-1.1-2.9-3.7-1.8-5.8l6.1-11.6c1.1-2.1 3.6-2.9 5.7-1.9l8.3 4.1 4.6-9.2c.5-1 1.4-1.8 2.5-2.2s2.3-.3 3.3.2l9.9 4.9 4.9-9.9c1.1-2.1 3.6-3 5.8-2l14 6.9c2.1 1.1 3 3.6 2 5.8-1.1 2.1-3.6 3-5.8 1.9l-10.1-5-4.9 9.9c-1.1 2.1-3.6 3-5.8 1.9l-9.9-4.9-4.6 9.2c-1.1 2.1-3.6 3-5.8 1.9l-8.4-4.1-4.1 7.9c-.9 1.7-2.4 2.5-3.9 2.5z"/><linearGradient id="E" gradientUnits="userSpaceOnUse" x1="26909.262" y1="-2084.434" x2="26979.959" y2="-2084.434" gradientTransform="scale(-1 1) rotate(-18.663 21223.964 81460.963)"><stop offset=".189" stop-color="#ffd234"/><stop offset=".986" stop-color="#ffb000"/></linearGradient><path fill="url(#E)" d="M119.249 496.303c-1.5 0-3-.8-3.8-2.3l-4.1-7.9-8.4 4.1c-2.1 1.1-4.7.2-5.8-1.9l-4.6-9.2-9.9 4.9c-2.1 1.1-4.7.2-5.8-1.9l-4.9-9.9-10.1 5c-2.1 1.1-4.7.2-5.8-1.9-1.1-2.1-.2-4.7 2-5.8l14-6.9c2.1-1.1 4.7-.199 5.8 2l4.9 9.9 9.9-4.9c1-.5 2.2-.6 3.3-.199 1.1.4 2 1.1 2.5 2.2l4.6 9.2 8.3-4.1c2.1-1 4.6-.2 5.7 1.9l6.1 11.6c1.1 2.1.3 4.7-1.8 5.8-.7.2-1.4.3-2.1.3z"/><linearGradient id="F" gradientUnits="userSpaceOnUse" x1="21089.721" y1="10553.32" x2="21160.369" y2="10553.32" gradientTransform="scale(-1 1) rotate(-78.241 4234.259 18592.531)"><stop offset=".189" stop-color="#ffd234"/><stop offset=".986" stop-color="#ffb000"/></linearGradient><path fill="url(#F)" d="M195.849 453.404c-.8 0-1.6-.2-2.3-.7-2-1.3-2.6-3.9-1.4-5.9l4.7-7.5-7.8-5.1c-2-1.3-2.5-4-1.2-6l5.7-8.6-9.2-6c-2-1.3-2.5-4-1.2-6l6-9.2-9.4-6.2c-2-1.3-2.5-4-1.2-6s4-2.5 6-1.2l13 8.6c2 1.3 2.5 4 1.2 6l-6 9.2 9.2 6c2 1.3 2.5 4 1.2 6l-5.7 8.6 7.7 5.1c2 1.3 2.5 3.9 1.3 5.9l-6.9 11.1c-.9 1.2-2.3 1.9-3.7 1.9z"/><linearGradient id="G" gradientUnits="userSpaceOnUse" x1="228.827" y1="-6485.534" x2="273.209" y2="-6485.534" gradientTransform="translate(0 6920)"><stop offset=".189" stop-color="#ffd234"/><stop offset=".986" stop-color="#ffb000"/></linearGradient><path fill="url(#G)" d="M233.149 456.704c-1.1 0-2.2-.4-3-1.3-1.7-1.7-1.7-4.4 0-6.1l35.8-35.8c1.7-1.7 4.4-1.7 6.1 0s1.7 4.4 0 6.1l-35.8 35.8c-.9.9-2 1.3-3.1 1.3z"/><linearGradient id="H" gradientUnits="userSpaceOnUse" x1="115.058" y1="-6484.734" x2="154.058" y2="-6484.734" gradientTransform="translate(0 6920)"><stop offset=".189" stop-color="#ffd234"/><stop offset=".986" stop-color="#ffb000"/></linearGradient><path fill="url(#H)" d="M149.849 454.803c-1.1 0-2.2-.4-3-1.3l-30.4-30.4c-1.7-1.7-1.7-4.4 0-6.1 1.7-1.7 4.4-1.7 6.1 0l30.4 30.4c1.7 1.7 1.7 4.4 0 6.1-.9.8-2 1.3-3.1 1.3z"/><path fill="#FFB68E" d="M3291.249 671.103s-74.7-9.3-88.3-10.7c-13.6-1.5-77.6-53.4-77.6-53.4l-32.2-10.4s17.8-1.3 27.4-2.5c9.5-1.2 10.3 6 10.3 6s64.7 37.1 72.399 37.4c26.6.9 87.9 5.7 87.9 5.7 5.2 6.6.1 27.9.1 27.9z"/><path fill="#FFB600" d="M3275.349 837.404s-47.4 180.7-28.8 236.9c6.9 21 17.5 134.8 17.5 134.8s-.6 23.6-12 28c-7.3 2.8 12.4 1.5 12.4 1.5s19.5-34.7 10.3-41.8 8.7-125.6 1.5-139.2c-6.5-12.2 44.3-225.3 44.3-225.3l-45.2 5.1z"/><path fill="#FFB600" d="M3293.749 838.204s19.4 182.3 38.1 238.6c6.9 21 17.5 134.8 17.5 134.8s-.6 23.6-12 28c-7.3 2.8 12.4 1.5 12.4 1.5s19.5-34.7 10.3-41.8 8.7-125.6 1.5-139.2c-6.5-12.2-22.6-226.9-22.6-226.9l-45.2 5z"/><path fill="#5A6A96" d="M3269.749 790.504l-29.6 208.8s35.5 3.5 58.6 4.1c21.3.6 34.7 2.2 34.7 2.2l5.1-99.2 11.1 100.3 17.4-1.3s-12.7-171.8-27.9-193.9c-15.2-22.1-17-23.1-17-23.1l-52.4 2.1z"/><path fill="#FFF" d="M3266.249 800.303l63.6-7.3s-12-46.1-13.3-70.8c-.3-6.4-.7-17.3.2-27.3 1.6-17.1 8.1-46.5-20.3-51.5-6.6-1.2-12.3-.8-14.6 4.5-14.7 32.8-24 48.3-29.1 59.5 2.7 9.6 14.2 15.4 14.2 15.4 2.3 22-2.2 68.1-.7 77.5z"/><path fill="#DE5F12" d="M3332.749 1240.803c3.7-2.3 8.1-4.3 8.1-4.3s.7 4.4 6.1.5 13.6-37 13.6-37 8.4 1.2 11.4 6.2c2.2 3.8-1.4 13.1-1.4 13.1s-.3.1-.4.1l-2.7 26.8h-2.5l.6-25.2c-2.2 1.2-4.4 3-5.3 6.2-2.7 10.2-3.9 14.4-6.9 17.6-3 3.2-23.3-.2-23.3-.2s-1.1-1.4 2.7-3.8zm-85-2.399c3.7-2.3 8.1-4.3 8.1-4.3s.7 4.4 6.1.5 13.6-37 13.6-37 8.4 1.2 11.4 6.2c2.2 3.8-1.4 13.1-1.4 13.1s-.3.1-.4.1l-2.7 26.8h-2.5l.6-25.2c-2.2 1.2-4.4 3-5.3 6.2-2.7 10.2-3.9 14.4-6.9 17.6s-23.3-.2-23.3-.2-1.2-1.5 2.7-3.8zm244.1-402.4l-49.4 30.7-12.8-20.5c-7.9-12.7-4-29.5 8.7-37.4l3.3-2c12.7-7.9 29.5-4 37.4 8.7l12.8 20.5zm-46.8 19.7l35.7-22.2-8.5-13.7c-5.6-8.9-17.3-11.7-26.3-6.1l-3.3 2c-8.9 5.6-11.7 17.3-6.1 26.3l8.5 13.7z"/><path fill="#FFA600" d="M3496.549 811.404l-82.1 51.1 30.1 77.4 105.4-65.6z"/><path fill="#DE5F12" d="M3427.249 894.303l-1.8-2.6 33.1-20.6 6.4 10.4 25.8-16-6.4-10.3 32.5-20.3 1.6 2.6-30 18.6 6.4 10.3-30.9 19.3-6.4-10.3z"/><g fill="#001ABD"><path d="M3473.949 857.204c1.3 2.1.7 4.9-1.4 6.2s-4.9.7-6.2-1.4c-1.3-2.1-.7-4.9 1.4-6.2s4.8-.7 6.2 1.4z"/><path d="M3467.487 859.554l3.396-2.113 8.19 13.16-3.396 2.113z"/></g><path fill="#DE5F12" d="M3549.949 874.303l6.9-12-56.1-53.4-5.2 3.1z"/><path fill="#FFB68E" d="M3298.249 670.904c22.7 19 89 70.1 89 70.1l43.8 62.7s-5.9 17.4 0 21.1c12.8 8.3 20.4-13.5 20.4-13.5-5.4 0-8.701 4.3-11.201 1.5-.8-.8 1.5-11.6 1.5-11.6l-35.9-75.1s-92.7-84.5-102.6-78.6c-3.8 2.2-6.2 5.3-7.9 8.3-3 5.1-1.5 11.4 2.9 15.1z"/><path fill="#FFB68E" d="M3315.549 547.303s-24.2 20.2-27.6 44.6c-1 7.2 16.9 15.6 16.9 15.6-1 17.7-20.8 36.5-20.8 36.5s9-4.4 17.6 4.9c5 5.4 12 4.1 11.5 2-4.6-23.2 30.9-71.1 21.4-87.2-9.3-16.1-19-16.4-19-16.4z"/><path fill="#172755" d="M3317.549 556.103c-1-.9-7.9-4.8-16.2 0-8.3 4.8 0 9.2 0 9.2s-20.9-4.5-17.2-18c3.6-13.6 20.3-19.7 33.5-12.7s11 16.7 11 16.7 28.8 4.3 37 21.3c11.1 23.2 3.3 43.3-11.8 50.7-13.5 6.6-37.5 1.4-37.5 1.4l-11.3-30.9s23.2-2.2 23.2-7-6.6-2.6-6.6-2.6 5.2-19.5-4.1-28.1z"/></svg>