<?xml version="1.0" standalone="no"?>
<!DOCTYPE svg PUBLIC "-//W3C//DTD SVG 20010904//EN"
 "http://www.w3.org/TR/2001/REC-SVG-20010904/DTD/svg10.dtd">
<svg version="1.0" xmlns="http://www.w3.org/2000/svg"
 width="1128.000000pt" height="1128.000000pt" viewBox="0 0 1128.000000 1128.000000"
 preserveAspectRatio="xMidYMid meet">
<metadata>
Created by potrace 1.11, written by Peter Selinger 2001-2013
</metadata>
<g transform="translate(0.000000,1128.000000) scale(0.100000,-0.100000)"
fill="#000000" stroke="none">
<path d="M692 5863 l3 -5416 1230 0 c677 1 1238 2 1248 2 16 1 17 217 17 4391
l0 4390 2442 -2 2443 -3 -1 -37 c0 -21 4 -38 10 -38 7 0 8 -3 1 -8 -13 -9 -14
-135 0 -144 7 -5 7 -8 0 -8 -14 0 -14 -160 0 -160 7 0 7 -3 0 -8 -13 -9 -14
-135 0 -144 7 -5 7 -8 0 -8 -14 0 -14 -160 0 -160 7 0 7 -3 0 -8 -13 -9 -14
-135 0 -144 7 -5 7 -8 0 -8 -14 0 -14 -160 0 -160 7 0 7 -3 0 -8 -14 -10 -14
-202 0 -202 7 0 7 -3 0 -8 -14 -10 -14 -322 0 -322 7 0 7 -3 0 -8 -6 -4 -10
-23 -10 -42 0 -19 4 -38 10 -42 7 -5 7 -8 0 -8 -14 0 -14 -160 0 -160 7 0 7
-3 0 -8 -14 -9 -14 -205 0 -214 6 -5 6 -8 0 -8 -13 0 -14 -140 0 -140 7 0 7
-3 0 -8 -14 -9 -14 -244 0 -254 7 -5 6 -8 0 -8 -14 0 -14 -160 0 -160 7 0 7
-3 0 -8 -13 -9 -14 -135 0 -144 7 -5 7 -8 0 -8 -14 0 -14 -160 0 -160 7 0 7
-3 0 -8 -13 -9 -14 -135 0 -144 7 -5 7 -8 0 -8 -14 0 -14 -160 0 -160 7 0 7
-3 0 -8 -13 -9 -14 -135 0 -144 7 -5 7 -8 0 -8 -14 0 -14 -160 0 -160 7 0 7
-3 0 -8 -14 -10 -14 -202 0 -202 7 0 7 -3 0 -8 -14 -10 -14 -322 0 -322 7 0 7
-3 0 -8 -13 -9 -13 -75 0 -84 7 -5 7 -8 0 -8 -14 0 -14 -160 0 -160 7 0 7 -3
0 -8 -14 -9 -14 -205 0 -214 6 -5 6 -8 0 -8 -13 0 -14 -140 0 -140 7 0 7 -3 0
-8 -14 -9 -14 -244 0 -254 7 -5 6 -8 0 -8 -14 0 -14 -160 0 -160 7 0 7 -3 0
-8 -13 -9 -14 -135 0 -144 7 -5 7 -8 0 -8 -14 0 -14 -160 0 -160 7 0 7 -3 0
-8 -13 -9 -14 -135 0 -144 7 -5 7 -8 -1 -8 -11 0 -13 -147 -2 -165 4 -6 3 -17
-2 -25 -9 -15 -1 -47 9 -33 3 5 40 28 81 53 41 24 77 47 78 52 2 4 8 8 12 8 5
0 51 26 102 58 51 32 101 61 111 65 9 3 17 11 17 17 0 5 6 10 14 10 8 0 21 6
28 13 13 12 41 29 83 51 11 6 34 21 52 34 17 12 36 22 42 22 6 0 11 5 11 10 0
6 4 10 10 10 8 0 82 45 195 118 11 6 27 15 35 19 8 4 17 9 20 13 3 4 67 44
143 91 75 46 156 96 180 111 23 15 52 33 64 40 18 11 115 70 198 121 10 7 52
33 93 60 40 26 75 47 77 47 2 0 53 31 114 70 60 38 114 70 120 70 5 0 11 3 13
8 3 7 15 15 253 160 77 47 142 90 143 94 2 4 8 8 13 8 11 0 171 100 179 112 3
4 5 1446 5 3205 l0 3198 -4943 3 -4942 2 2 -5417z"/>
<path d="M9149 2646 c-2 -2 -31 -7 -64 -10 -33 -4 -68 -9 -77 -12 -22 -7 -59
-15 -83 -19 -11 -2 -55 -17 -97 -33 -42 -16 -79 -27 -82 -24 -3 3 -6 0 -6 -7
0 -7 -4 -9 -10 -6 -5 3 -10 2 -10 -4 0 -5 -13 -12 -30 -16 -16 -4 -30 -10 -30
-15 0 -5 -10 -12 -22 -15 -79 -24 -296 -205 -403 -336 -61 -75 -189 -300 -204
-359 -2 -8 -15 -51 -28 -95 -13 -44 -26 -98 -29 -120 -3 -22 -9 -51 -13 -65
-9 -29 -11 -350 -2 -365 3 -5 7 -21 8 -35 2 -14 11 -56 20 -95 10 -38 16 -73
15 -77 -1 -5 3 -8 9 -8 5 0 8 -4 4 -10 -3 -5 -2 -17 3 -27 12 -22 26 -56 43
-103 7 -19 19 -42 26 -52 8 -9 16 -22 17 -30 13 -67 185 -280 332 -409 42 -37
149 -109 163 -109 6 0 11 -3 11 -8 0 -4 24 -18 53 -32 28 -13 55 -29 59 -35 4
-5 8 -6 8 -1 0 5 7 2 17 -5 9 -8 17 -13 17 -11 1 2 15 -2 31 -9 36 -15 29 -12
143 -43 52 -14 124 -30 160 -35 67 -9 319 -7 377 2 40 7 196 46 215 54 8 3 17
7 20 8 49 13 174 70 213 97 15 11 27 17 27 13 0 -3 25 13 55 35 30 22 56 40
59 40 16 0 206 186 250 245 17 22 33 42 36 45 12 10 92 144 94 157 1 8 8 18
15 22 7 5 12 11 12 15 -1 3 6 23 15 44 51 120 87 248 103 367 9 72 7 319 -3
368 -7 32 -16 74 -21 102 -6 33 -41 147 -61 195 -38 95 -130 260 -145 260 -5
0 -9 6 -9 13 0 6 -13 28 -28 47 -27 34 -166 175 -213 216 -38 33 -172 121
-196 128 -13 4 -23 12 -23 18 0 6 -3 8 -6 5 -4 -4 -20 3 -35 14 -16 11 -29 18
-29 14 0 -3 -12 1 -27 8 -68 34 -196 71 -322 94 -32 5 -317 13 -322 9z"/>
</g>
</svg>
