<?xml version="1.0" standalone="no"?>
<!DOCTYPE svg PUBLIC "-//W3C//DTD SVG 20010904//EN"
 "http://www.w3.org/TR/2001/REC-SVG-20010904/DTD/svg10.dtd">
<svg version="1.0" xmlns="http://www.w3.org/2000/svg"
 width="700.000000pt" height="700.000000pt" viewBox="0 0 700.000000 700.000000"
 preserveAspectRatio="xMidYMid meet">
<metadata>
Created by potrace 1.11, written by Peter Selinger 2001-2013
</metadata>
<g transform="translate(0.000000,700.000000) scale(0.100000,-0.100000)"
fill="#000000" stroke="none">
<path d="M3215 6990 c-168 -17 -211 -22 -230 -26 -11 -3 -36 -7 -55 -10 -19
-3 -48 -7 -65 -10 -16 -3 -37 -7 -45 -9 -8 -2 -26 -6 -40 -9 -186 -34 -457
-124 -700 -233 -158 -70 -399 -204 -527 -293 -32 -22 -66 -46 -77 -53 -25 -16
-198 -148 -212 -162 -6 -5 -43 -39 -83 -74 -206 -183 -381 -381 -542 -612 -82
-116 -90 -128 -119 -179 -23 -39 -31 -53 -77 -126 -42 -65 -150 -292 -198
-414 -71 -182 -129 -375 -168 -565 -22 -104 -31 -157 -52 -311 -13 -93 -19
-221 -19 -399 0 -249 11 -393 44 -585 5 -30 12 -70 15 -87 3 -18 17 -79 31
-135 14 -57 27 -112 29 -123 13 -59 83 -266 127 -375 316 -783 894 -1421 1634
-1802 222 -114 433 -198 673 -268 98 -29 283 -69 391 -85 25 -4 52 -8 60 -10
8 -2 49 -6 90 -10 41 -4 86 -9 100 -12 51 -8 488 -10 572 -2 105 10 176 18
203 23 11 2 43 7 70 10 465 62 1044 297 1475 600 292 205 565 471 786 766 379
505 628 1155 681 1780 18 206 6 642 -22 805 -2 17 -7 48 -10 70 -17 120 -79
375 -125 513 -240 728 -702 1356 -1313 1786 -158 110 -286 185 -482 281 -286
140 -538 225 -860 291 -54 11 -197 33 -250 39 -33 4 -71 9 -85 12 -42 8 -550
11 -625 3z m980 -1045 c365 -315 701 -770 894 -1210 24 -55 50 -115 58 -133
27 -61 112 -326 137 -427 50 -199 86 -419 102 -625 7 -102 8 -429 0 -485 -3
-22 -8 -69 -11 -105 -34 -373 -146 -777 -312 -1133 l-46 -97 -78 -25 c-65 -20
-130 -37 -229 -60 -129 -29 -131 -30 -265 -50 -96 -14 -172 -22 -294 -31 -130
-9 -406 -4 -551 10 -120 12 -155 17 -200 26 -25 5 -63 11 -86 14 -41 5 -154
30 -209 46 -16 4 -46 11 -65 15 -63 12 -253 76 -395 132 -438 174 -828 429
-1167 763 l-117 115 4 70 c8 132 15 230 19 250 2 11 7 49 12 85 4 36 8 67 9
70 1 3 5 25 9 50 14 75 15 84 21 110 3 14 7 35 9 47 28 147 143 499 215 658
56 122 138 281 196 376 30 51 55 94 55 95 0 2 38 57 84 123 210 294 442 540
706 745 302 236 619 412 976 541 99 36 330 104 379 112 17 3 32 7 34 9 5 5 18
-5 106 -81z"/>
</g>
</svg>
